G04 #@! TF.GenerationSoftware,KiCad,Pcbnew,(6.0.9)*
G04 #@! TF.CreationDate,2022-12-03T11:20:38+05:30*
G04 #@! TF.ProjectId,micromouseus,6d696372-6f6d-46f7-9573-6575732e6b69,rev?*
G04 #@! TF.SameCoordinates,Original*
G04 #@! TF.FileFunction,Legend,Top*
G04 #@! TF.FilePolarity,Positive*
%FSLAX46Y46*%
G04 Gerber Fmt 4.6, Leading zero omitted, Abs format (unit mm)*
G04 Created by KiCad (PCBNEW (6.0.9)) date 2022-12-03 11:20:38*
%MOMM*%
%LPD*%
G01*
G04 APERTURE LIST*
G04 Aperture macros list*
%AMHorizOval*
0 Thick line with rounded ends*
0 $1 width*
0 $2 $3 position (X,Y) of the first rounded end (center of the circle)*
0 $4 $5 position (X,Y) of the second rounded end (center of the circle)*
0 Add line between two ends*
20,1,$1,$2,$3,$4,$5,0*
0 Add two circle primitives to create the rounded ends*
1,1,$1,$2,$3*
1,1,$1,$4,$5*%
%AMRotRect*
0 Rectangle, with rotation*
0 The origin of the aperture is its center*
0 $1 length*
0 $2 width*
0 $3 Rotation angle, in degrees counterclockwise*
0 Add horizontal line*
21,1,$1,$2,0,0,$3*%
G04 Aperture macros list end*
%ADD10C,0.150000*%
%ADD11C,0.120000*%
%ADD12C,0.127000*%
%ADD13C,0.200000*%
%ADD14O,1.800000X1.800000*%
%ADD15O,1.500000X1.500000*%
%ADD16O,1.700000X1.700000*%
%ADD17R,1.700000X3.500000*%
%ADD18R,1.700000X1.700000*%
%ADD19R,3.500000X1.700000*%
%ADD20C,1.980000*%
%ADD21RotRect,1.700000X1.700000X55.000000*%
%ADD22HorizOval,1.700000X0.000000X0.000000X0.000000X0.000000X0*%
%ADD23RotRect,1.700000X1.700000X310.000000*%
%ADD24HorizOval,1.700000X0.000000X0.000000X0.000000X0.000000X0*%
G04 APERTURE END LIST*
D10*
X154392380Y-76961904D02*
X155201904Y-76961904D01*
X155297142Y-76914285D01*
X155344761Y-76866666D01*
X155392380Y-76771428D01*
X155392380Y-76580952D01*
X155344761Y-76485714D01*
X155297142Y-76438095D01*
X155201904Y-76390476D01*
X154392380Y-76390476D01*
X154487619Y-75961904D02*
X154440000Y-75914285D01*
X154392380Y-75819047D01*
X154392380Y-75580952D01*
X154440000Y-75485714D01*
X154487619Y-75438095D01*
X154582857Y-75390476D01*
X154678095Y-75390476D01*
X154820952Y-75438095D01*
X155392380Y-76009523D01*
X155392380Y-75390476D01*
X166760592Y-90356277D02*
X166787529Y-90437089D01*
X166868341Y-90517902D01*
X166976091Y-90571776D01*
X167083841Y-90571776D01*
X167164653Y-90544839D01*
X167299340Y-90464027D01*
X167380152Y-90383215D01*
X167460964Y-90248528D01*
X167487902Y-90167715D01*
X167487902Y-90059966D01*
X167434027Y-89952216D01*
X167380152Y-89898341D01*
X167272402Y-89844467D01*
X167218528Y-89844467D01*
X167029966Y-90033028D01*
X167137715Y-90140778D01*
X167029966Y-89548155D02*
X166464280Y-90113841D01*
X166248781Y-89898341D01*
X166221844Y-89817529D01*
X166221844Y-89763654D01*
X166248781Y-89682842D01*
X166329593Y-89602030D01*
X166410406Y-89575093D01*
X166464280Y-89575093D01*
X166545093Y-89602030D01*
X166760592Y-89817529D01*
X166167969Y-88686158D02*
X166491218Y-89009407D01*
X166329593Y-88847783D02*
X165763908Y-89413468D01*
X165898595Y-89386531D01*
X166006345Y-89386531D01*
X166087157Y-89413468D01*
X165629221Y-88147410D02*
X165952470Y-88470659D01*
X165790845Y-88309035D02*
X165225160Y-88874720D01*
X165359847Y-88847783D01*
X165467597Y-88847783D01*
X165548409Y-88874720D01*
X149680964Y-64048402D02*
X149411590Y-63779028D01*
X149896463Y-63940653D02*
X149142216Y-64317776D01*
X149519340Y-63563529D01*
X148495719Y-63617404D02*
X148522656Y-63698216D01*
X148603468Y-63779028D01*
X148711218Y-63832903D01*
X148818967Y-63832903D01*
X148899780Y-63805966D01*
X149034467Y-63725154D01*
X149115279Y-63644341D01*
X149196091Y-63509654D01*
X149223028Y-63428842D01*
X149223028Y-63321093D01*
X149169154Y-63213343D01*
X149115279Y-63159468D01*
X149007529Y-63105593D01*
X148953654Y-63105593D01*
X148765093Y-63294155D01*
X148872842Y-63401905D01*
X148765093Y-62809282D02*
X148199407Y-63374967D01*
X148441844Y-62486033D01*
X147876158Y-63051719D01*
X148172470Y-62216659D02*
X147606784Y-62782345D01*
X147472097Y-62647658D01*
X147418223Y-62539908D01*
X147418223Y-62432158D01*
X147445160Y-62351346D01*
X147525972Y-62216659D01*
X147606784Y-62135847D01*
X147741471Y-62055035D01*
X147822284Y-62028097D01*
X147930033Y-62028097D01*
X148037783Y-62081972D01*
X148172470Y-62216659D01*
X174138155Y-64113841D02*
X174165093Y-64194653D01*
X174245905Y-64275465D01*
X174353654Y-64329340D01*
X174461404Y-64329340D01*
X174542216Y-64302402D01*
X174676903Y-64221590D01*
X174757715Y-64140778D01*
X174838528Y-64006091D01*
X174865465Y-63925279D01*
X174865465Y-63817529D01*
X174811590Y-63709780D01*
X174757715Y-63655905D01*
X174649966Y-63602030D01*
X174596091Y-63602030D01*
X174407529Y-63790592D01*
X174515279Y-63898341D01*
X174407529Y-63305719D02*
X173841844Y-63871404D01*
X174084280Y-62982470D01*
X173518595Y-63548155D01*
X173814906Y-62713096D02*
X173249221Y-63278781D01*
X173114534Y-63144094D01*
X173060659Y-63036345D01*
X173060659Y-62928595D01*
X173087597Y-62847783D01*
X173168409Y-62713096D01*
X173249221Y-62632284D01*
X173383908Y-62551471D01*
X173464720Y-62524534D01*
X173572470Y-62524534D01*
X173680219Y-62578409D01*
X173814906Y-62713096D01*
X131467309Y-64246870D02*
X131844433Y-63492622D01*
X131090186Y-63869746D01*
X130982436Y-63223248D02*
X130928561Y-63115499D01*
X130928561Y-63061624D01*
X130955499Y-62980812D01*
X131036311Y-62900000D01*
X131117123Y-62873062D01*
X131170998Y-62873062D01*
X131251810Y-62900000D01*
X131467309Y-63115499D01*
X130901624Y-63681184D01*
X130713062Y-63492622D01*
X130686125Y-63411810D01*
X130686125Y-63357935D01*
X130713062Y-63277123D01*
X130766937Y-63223248D01*
X130847749Y-63196311D01*
X130901624Y-63196311D01*
X130982436Y-63223248D01*
X131170998Y-63411810D01*
X130335938Y-63115499D02*
X130793874Y-62657563D01*
X130820812Y-62576751D01*
X130820812Y-62522876D01*
X130793874Y-62442064D01*
X130686125Y-62334314D01*
X130605312Y-62307377D01*
X130551438Y-62307377D01*
X130470625Y-62334314D01*
X130012690Y-62792250D01*
X130309001Y-62011065D02*
X130255126Y-61903316D01*
X130120439Y-61768629D01*
X130039627Y-61741691D01*
X129985752Y-61741691D01*
X129904940Y-61768629D01*
X129851065Y-61822503D01*
X129824128Y-61903316D01*
X129824128Y-61957190D01*
X129851065Y-62038003D01*
X129931877Y-62172690D01*
X129958815Y-62253502D01*
X129958815Y-62307377D01*
X129931877Y-62388189D01*
X129878003Y-62442064D01*
X129797190Y-62469001D01*
X129743316Y-62469001D01*
X129662503Y-62442064D01*
X129527816Y-62307377D01*
X129473942Y-62199627D01*
X136038155Y-64113841D02*
X136065093Y-64194653D01*
X136145905Y-64275465D01*
X136253654Y-64329340D01*
X136361404Y-64329340D01*
X136442216Y-64302402D01*
X136576903Y-64221590D01*
X136657715Y-64140778D01*
X136738528Y-64006091D01*
X136765465Y-63925279D01*
X136765465Y-63817529D01*
X136711590Y-63709780D01*
X136657715Y-63655905D01*
X136549966Y-63602030D01*
X136496091Y-63602030D01*
X136307529Y-63790592D01*
X136415279Y-63898341D01*
X136307529Y-63305719D02*
X135741844Y-63871404D01*
X135984280Y-62982470D01*
X135418595Y-63548155D01*
X135714906Y-62713096D02*
X135149221Y-63278781D01*
X135014534Y-63144094D01*
X134960659Y-63036345D01*
X134960659Y-62928595D01*
X134987597Y-62847783D01*
X135068409Y-62713096D01*
X135149221Y-62632284D01*
X135283908Y-62551471D01*
X135364720Y-62524534D01*
X135472470Y-62524534D01*
X135580219Y-62578409D01*
X135714906Y-62713096D01*
X171840592Y-90210277D02*
X171867529Y-90291089D01*
X171948341Y-90371902D01*
X172056091Y-90425776D01*
X172163841Y-90425776D01*
X172244653Y-90398839D01*
X172379340Y-90318027D01*
X172460152Y-90237215D01*
X172540964Y-90102528D01*
X172567902Y-90021715D01*
X172567902Y-89913966D01*
X172514027Y-89806216D01*
X172460152Y-89752341D01*
X172352402Y-89698467D01*
X172298528Y-89698467D01*
X172109966Y-89887028D01*
X172217715Y-89994778D01*
X172109966Y-89402155D02*
X171544280Y-89967841D01*
X171328781Y-89752341D01*
X171301844Y-89671529D01*
X171301844Y-89617654D01*
X171328781Y-89536842D01*
X171409593Y-89456030D01*
X171490406Y-89429093D01*
X171544280Y-89429093D01*
X171625093Y-89456030D01*
X171840592Y-89671529D01*
X171247969Y-88540158D02*
X171571218Y-88863407D01*
X171409593Y-88701783D02*
X170843908Y-89267468D01*
X170978595Y-89240531D01*
X171086345Y-89240531D01*
X171167157Y-89267468D01*
X170493722Y-88917282D02*
X170143536Y-88567096D01*
X170547597Y-88540158D01*
X170466784Y-88459346D01*
X170439847Y-88378534D01*
X170439847Y-88324659D01*
X170466784Y-88243847D01*
X170601471Y-88109160D01*
X170682284Y-88082223D01*
X170736158Y-88082223D01*
X170816971Y-88109160D01*
X170978595Y-88270784D01*
X171005532Y-88351597D01*
X171005532Y-88405471D01*
X144473773Y-64045211D02*
X144204399Y-63775837D01*
X144689272Y-63937462D02*
X143935025Y-64314585D01*
X144312149Y-63560338D01*
X144123587Y-63371776D02*
X143557902Y-63937462D01*
X143423215Y-63802775D01*
X143369340Y-63695025D01*
X143369340Y-63587276D01*
X143396277Y-63506463D01*
X143477089Y-63371776D01*
X143557902Y-63290964D01*
X143692589Y-63210152D01*
X143773401Y-63183215D01*
X143881150Y-63183215D01*
X143988900Y-63237089D01*
X144123587Y-63371776D01*
X143180778Y-62536717D02*
X143234653Y-62536717D01*
X143342402Y-62590592D01*
X143396277Y-62644467D01*
X143450152Y-62752216D01*
X143450152Y-62859966D01*
X143423215Y-62940778D01*
X143342402Y-63075465D01*
X143261590Y-63156277D01*
X143126903Y-63237089D01*
X143046091Y-63264027D01*
X142938341Y-63264027D01*
X142830592Y-63210152D01*
X142776717Y-63156277D01*
X142722842Y-63048528D01*
X142722842Y-62994653D01*
X143180778Y-62321218D02*
X142749780Y-61890219D01*
X142076345Y-62455905D02*
X142453468Y-61701658D01*
X141699221Y-62078781D01*
X141753096Y-61001285D02*
X141672284Y-61459221D01*
X142076345Y-61324534D02*
X141510659Y-61890219D01*
X141295160Y-61674720D01*
X141268223Y-61593908D01*
X141268223Y-61540033D01*
X141295160Y-61459221D01*
X141375972Y-61378409D01*
X141456784Y-61351471D01*
X141510659Y-61351471D01*
X141591471Y-61378409D01*
X141806971Y-61593908D01*
X141214348Y-61055160D02*
X141025786Y-60866598D01*
X141241285Y-60489475D02*
X141510659Y-60758849D01*
X140944974Y-61324534D01*
X140675600Y-61055160D01*
X140513975Y-60354788D02*
X140702537Y-60543349D01*
X140998849Y-60247038D02*
X140433163Y-60812723D01*
X140163789Y-60543349D01*
X143631218Y-89686903D02*
X143658155Y-89767715D01*
X143738967Y-89848528D01*
X143846717Y-89902402D01*
X143954467Y-89902402D01*
X144035279Y-89875465D01*
X144169966Y-89794653D01*
X144250778Y-89713841D01*
X144331590Y-89579154D01*
X144358528Y-89498341D01*
X144358528Y-89390592D01*
X144304653Y-89282842D01*
X144250778Y-89228967D01*
X144143028Y-89175093D01*
X144089154Y-89175093D01*
X143900592Y-89363654D01*
X144008341Y-89471404D01*
X143900592Y-88878781D02*
X143334906Y-89444467D01*
X143119407Y-89228967D01*
X143092470Y-89148155D01*
X143092470Y-89094280D01*
X143119407Y-89013468D01*
X143200219Y-88932656D01*
X143281032Y-88905719D01*
X143334906Y-88905719D01*
X143415719Y-88932656D01*
X143631218Y-89148155D01*
X142715346Y-88447783D02*
X143092470Y-88070659D01*
X142634534Y-88797969D02*
X143173282Y-88528595D01*
X142823096Y-88178409D01*
X153761218Y-89586903D02*
X153788155Y-89667715D01*
X153868967Y-89748528D01*
X153976717Y-89802402D01*
X154084467Y-89802402D01*
X154165279Y-89775465D01*
X154299966Y-89694653D01*
X154380778Y-89613841D01*
X154461590Y-89479154D01*
X154488528Y-89398341D01*
X154488528Y-89290592D01*
X154434653Y-89182842D01*
X154380778Y-89128967D01*
X154273028Y-89075093D01*
X154219154Y-89075093D01*
X154030592Y-89263654D01*
X154138341Y-89371404D01*
X154030592Y-88778781D02*
X153464906Y-89344467D01*
X153249407Y-89128967D01*
X153222470Y-89048155D01*
X153222470Y-88994280D01*
X153249407Y-88913468D01*
X153330219Y-88832656D01*
X153411032Y-88805719D01*
X153464906Y-88805719D01*
X153545719Y-88832656D01*
X153761218Y-89048155D01*
X152953096Y-88832656D02*
X152575972Y-88455532D01*
X153384094Y-88132284D01*
X179460592Y-90210277D02*
X179487529Y-90291089D01*
X179568341Y-90371902D01*
X179676091Y-90425776D01*
X179783841Y-90425776D01*
X179864653Y-90398839D01*
X179999340Y-90318027D01*
X180080152Y-90237215D01*
X180160964Y-90102528D01*
X180187902Y-90021715D01*
X180187902Y-89913966D01*
X180134027Y-89806216D01*
X180080152Y-89752341D01*
X179972402Y-89698467D01*
X179918528Y-89698467D01*
X179729966Y-89887028D01*
X179837715Y-89994778D01*
X179729966Y-89402155D02*
X179164280Y-89967841D01*
X178948781Y-89752341D01*
X178921844Y-89671529D01*
X178921844Y-89617654D01*
X178948781Y-89536842D01*
X179029593Y-89456030D01*
X179110406Y-89429093D01*
X179164280Y-89429093D01*
X179245093Y-89456030D01*
X179460592Y-89671529D01*
X178867969Y-88540158D02*
X179191218Y-88863407D01*
X179029593Y-88701783D02*
X178463908Y-89267468D01*
X178598595Y-89240531D01*
X178706345Y-89240531D01*
X178787157Y-89267468D01*
X177790473Y-88594033D02*
X178059847Y-88863407D01*
X178356158Y-88620971D01*
X178302284Y-88620971D01*
X178221471Y-88594033D01*
X178086784Y-88459346D01*
X178059847Y-88378534D01*
X178059847Y-88324659D01*
X178086784Y-88243847D01*
X178221471Y-88109160D01*
X178302284Y-88082223D01*
X178356158Y-88082223D01*
X178436971Y-88109160D01*
X178571658Y-88243847D01*
X178598595Y-88324659D01*
X178598595Y-88378534D01*
X176920592Y-64102277D02*
X176947529Y-64183089D01*
X177028341Y-64263902D01*
X177136091Y-64317776D01*
X177243841Y-64317776D01*
X177324653Y-64290839D01*
X177459340Y-64210027D01*
X177540152Y-64129215D01*
X177620964Y-63994528D01*
X177647902Y-63913715D01*
X177647902Y-63805966D01*
X177594027Y-63698216D01*
X177540152Y-63644341D01*
X177432402Y-63590467D01*
X177378528Y-63590467D01*
X177189966Y-63779028D01*
X177297715Y-63886778D01*
X177189966Y-63294155D02*
X176624280Y-63859841D01*
X176408781Y-63644341D01*
X176381844Y-63563529D01*
X176381844Y-63509654D01*
X176408781Y-63428842D01*
X176489593Y-63348030D01*
X176570406Y-63321093D01*
X176624280Y-63321093D01*
X176705093Y-63348030D01*
X176920592Y-63563529D01*
X176327969Y-62432158D02*
X176651218Y-62755407D01*
X176489593Y-62593783D02*
X175923908Y-63159468D01*
X176058595Y-63132531D01*
X176166345Y-63132531D01*
X176247157Y-63159468D01*
X175573722Y-62809282D02*
X175196598Y-62432158D01*
X176004720Y-62108910D01*
X154060592Y-64102277D02*
X154087529Y-64183089D01*
X154168341Y-64263902D01*
X154276091Y-64317776D01*
X154383841Y-64317776D01*
X154464653Y-64290839D01*
X154599340Y-64210027D01*
X154680152Y-64129215D01*
X154760964Y-63994528D01*
X154787902Y-63913715D01*
X154787902Y-63805966D01*
X154734027Y-63698216D01*
X154680152Y-63644341D01*
X154572402Y-63590467D01*
X154518528Y-63590467D01*
X154329966Y-63779028D01*
X154437715Y-63886778D01*
X154329966Y-63294155D02*
X153764280Y-63859841D01*
X153548781Y-63644341D01*
X153521844Y-63563529D01*
X153521844Y-63509654D01*
X153548781Y-63428842D01*
X153629593Y-63348030D01*
X153710406Y-63321093D01*
X153764280Y-63321093D01*
X153845093Y-63348030D01*
X154060592Y-63563529D01*
X153279407Y-63267218D02*
X153225532Y-63267218D01*
X153144720Y-63240280D01*
X153010033Y-63105593D01*
X152983096Y-63024781D01*
X152983096Y-62970906D01*
X153010033Y-62890094D01*
X153063908Y-62836219D01*
X153171658Y-62782345D01*
X153818155Y-62782345D01*
X153467969Y-62432158D01*
X152417410Y-62512971D02*
X152525160Y-62620720D01*
X152605972Y-62647658D01*
X152659847Y-62647658D01*
X152794534Y-62620720D01*
X152929221Y-62539908D01*
X153144720Y-62324409D01*
X153171658Y-62243597D01*
X153171658Y-62189722D01*
X153144720Y-62108910D01*
X153036971Y-62001160D01*
X152956158Y-61974223D01*
X152902284Y-61974223D01*
X152821471Y-62001160D01*
X152686784Y-62135847D01*
X152659847Y-62216659D01*
X152659847Y-62270534D01*
X152686784Y-62351346D01*
X152794534Y-62459096D01*
X152875346Y-62486033D01*
X152929221Y-62486033D01*
X153010033Y-62459096D01*
X181463809Y-83709523D02*
X181501904Y-83595238D01*
X181501904Y-83404761D01*
X181463809Y-83328571D01*
X181425714Y-83290476D01*
X181349523Y-83252380D01*
X181273333Y-83252380D01*
X181197142Y-83290476D01*
X181159047Y-83328571D01*
X181120952Y-83404761D01*
X181082857Y-83557142D01*
X181044761Y-83633333D01*
X181006666Y-83671428D01*
X180930476Y-83709523D01*
X180854285Y-83709523D01*
X180778095Y-83671428D01*
X180740000Y-83633333D01*
X180701904Y-83557142D01*
X180701904Y-83366666D01*
X180740000Y-83252380D01*
X180701904Y-82985714D02*
X181501904Y-82795238D01*
X180930476Y-82642857D01*
X181501904Y-82490476D01*
X180701904Y-82300000D01*
X181425714Y-81538095D02*
X181463809Y-81576190D01*
X181501904Y-81690476D01*
X181501904Y-81766666D01*
X181463809Y-81880952D01*
X181387619Y-81957142D01*
X181311428Y-81995238D01*
X181159047Y-82033333D01*
X181044761Y-82033333D01*
X180892380Y-81995238D01*
X180816190Y-81957142D01*
X180740000Y-81880952D01*
X180701904Y-81766666D01*
X180701904Y-81690476D01*
X180740000Y-81576190D01*
X180778095Y-81538095D01*
X181501904Y-80814285D02*
X181501904Y-81195238D01*
X180701904Y-81195238D01*
X181501904Y-80547619D02*
X180701904Y-80547619D01*
X181501904Y-80090476D02*
X181044761Y-80433333D01*
X180701904Y-80090476D02*
X181159047Y-80547619D01*
X138898308Y-64277868D02*
X138548122Y-63927682D01*
X138952183Y-63900744D01*
X138871370Y-63819932D01*
X138844433Y-63739120D01*
X138844433Y-63685245D01*
X138871370Y-63604433D01*
X139006057Y-63469746D01*
X139086870Y-63442809D01*
X139140744Y-63442809D01*
X139221557Y-63469746D01*
X139383181Y-63631370D01*
X139410118Y-63712183D01*
X139410118Y-63766057D01*
X138386497Y-63766057D02*
X138763621Y-63011810D01*
X138009374Y-63388934D01*
X137874687Y-63254247D02*
X137524500Y-62904061D01*
X137928561Y-62877123D01*
X137847749Y-62796311D01*
X137820812Y-62715499D01*
X137820812Y-62661624D01*
X137847749Y-62580812D01*
X137982436Y-62446125D01*
X138063248Y-62419187D01*
X138117123Y-62419187D01*
X138197935Y-62446125D01*
X138359560Y-62607749D01*
X138386497Y-62688561D01*
X138386497Y-62742436D01*
X138036311Y-62176751D02*
X137605312Y-61745752D01*
X137120439Y-61961251D02*
X136931877Y-61772690D01*
X137147377Y-61395566D02*
X137416751Y-61664940D01*
X136851065Y-62230625D01*
X136581691Y-61961251D01*
X136904940Y-61153129D02*
X136339255Y-61718815D01*
X136581691Y-60829881D01*
X136016006Y-61395566D01*
X141430592Y-64310152D02*
X141080406Y-63959966D01*
X141484467Y-63933028D01*
X141403654Y-63852216D01*
X141376717Y-63771404D01*
X141376717Y-63717529D01*
X141403654Y-63636717D01*
X141538341Y-63502030D01*
X141619154Y-63475093D01*
X141673028Y-63475093D01*
X141753841Y-63502030D01*
X141915465Y-63663654D01*
X141942402Y-63744467D01*
X141942402Y-63798341D01*
X140918781Y-63798341D02*
X141295905Y-63044094D01*
X140541658Y-63421218D01*
X140406971Y-63286531D02*
X140056784Y-62936345D01*
X140460845Y-62909407D01*
X140380033Y-62828595D01*
X140353096Y-62747783D01*
X140353096Y-62693908D01*
X140380033Y-62613096D01*
X140514720Y-62478409D01*
X140595532Y-62451471D01*
X140649407Y-62451471D01*
X140730219Y-62478409D01*
X140891844Y-62640033D01*
X140918781Y-62720845D01*
X140918781Y-62774720D01*
X156331218Y-89686903D02*
X156358155Y-89767715D01*
X156438967Y-89848528D01*
X156546717Y-89902402D01*
X156654467Y-89902402D01*
X156735279Y-89875465D01*
X156869966Y-89794653D01*
X156950778Y-89713841D01*
X157031590Y-89579154D01*
X157058528Y-89498341D01*
X157058528Y-89390592D01*
X157004653Y-89282842D01*
X156950778Y-89228967D01*
X156843028Y-89175093D01*
X156789154Y-89175093D01*
X156600592Y-89363654D01*
X156708341Y-89471404D01*
X156600592Y-88878781D02*
X156034906Y-89444467D01*
X155819407Y-89228967D01*
X155792470Y-89148155D01*
X155792470Y-89094280D01*
X155819407Y-89013468D01*
X155900219Y-88932656D01*
X155981032Y-88905719D01*
X156034906Y-88905719D01*
X156115719Y-88932656D01*
X156331218Y-89148155D01*
X155630845Y-88555532D02*
X155657783Y-88636345D01*
X155657783Y-88690219D01*
X155630845Y-88771032D01*
X155603908Y-88797969D01*
X155523096Y-88824906D01*
X155469221Y-88824906D01*
X155388409Y-88797969D01*
X155280659Y-88690219D01*
X155253722Y-88609407D01*
X155253722Y-88555532D01*
X155280659Y-88474720D01*
X155307597Y-88447783D01*
X155388409Y-88420845D01*
X155442284Y-88420845D01*
X155523096Y-88447783D01*
X155630845Y-88555532D01*
X155711658Y-88582470D01*
X155765532Y-88582470D01*
X155846345Y-88555532D01*
X155954094Y-88447783D01*
X155981032Y-88366971D01*
X155981032Y-88313096D01*
X155954094Y-88232284D01*
X155846345Y-88124534D01*
X155765532Y-88097597D01*
X155711658Y-88097597D01*
X155630845Y-88124534D01*
X155523096Y-88232284D01*
X155496158Y-88313096D01*
X155496158Y-88366971D01*
X155523096Y-88447783D01*
X179460592Y-64102277D02*
X179487529Y-64183089D01*
X179568341Y-64263902D01*
X179676091Y-64317776D01*
X179783841Y-64317776D01*
X179864653Y-64290839D01*
X179999340Y-64210027D01*
X180080152Y-64129215D01*
X180160964Y-63994528D01*
X180187902Y-63913715D01*
X180187902Y-63805966D01*
X180134027Y-63698216D01*
X180080152Y-63644341D01*
X179972402Y-63590467D01*
X179918528Y-63590467D01*
X179729966Y-63779028D01*
X179837715Y-63886778D01*
X179729966Y-63294155D02*
X179164280Y-63859841D01*
X178948781Y-63644341D01*
X178921844Y-63563529D01*
X178921844Y-63509654D01*
X178948781Y-63428842D01*
X179029593Y-63348030D01*
X179110406Y-63321093D01*
X179164280Y-63321093D01*
X179245093Y-63348030D01*
X179460592Y-63563529D01*
X178867969Y-62432158D02*
X179191218Y-62755407D01*
X179029593Y-62593783D02*
X178463908Y-63159468D01*
X178598595Y-63132531D01*
X178706345Y-63132531D01*
X178787157Y-63159468D01*
X177817410Y-62512971D02*
X177925160Y-62620720D01*
X178005972Y-62647658D01*
X178059847Y-62647658D01*
X178194534Y-62620720D01*
X178329221Y-62539908D01*
X178544720Y-62324409D01*
X178571658Y-62243597D01*
X178571658Y-62189722D01*
X178544720Y-62108910D01*
X178436971Y-62001160D01*
X178356158Y-61974223D01*
X178302284Y-61974223D01*
X178221471Y-62001160D01*
X178086784Y-62135847D01*
X178059847Y-62216659D01*
X178059847Y-62270534D01*
X178086784Y-62351346D01*
X178194534Y-62459096D01*
X178275346Y-62486033D01*
X178329221Y-62486033D01*
X178410033Y-62459096D01*
X161438155Y-64113841D02*
X161465093Y-64194653D01*
X161545905Y-64275465D01*
X161653654Y-64329340D01*
X161761404Y-64329340D01*
X161842216Y-64302402D01*
X161976903Y-64221590D01*
X162057715Y-64140778D01*
X162138528Y-64006091D01*
X162165465Y-63925279D01*
X162165465Y-63817529D01*
X162111590Y-63709780D01*
X162057715Y-63655905D01*
X161949966Y-63602030D01*
X161896091Y-63602030D01*
X161707529Y-63790592D01*
X161815279Y-63898341D01*
X161707529Y-63305719D02*
X161141844Y-63871404D01*
X161384280Y-62982470D01*
X160818595Y-63548155D01*
X161114906Y-62713096D02*
X160549221Y-63278781D01*
X160414534Y-63144094D01*
X160360659Y-63036345D01*
X160360659Y-62928595D01*
X160387597Y-62847783D01*
X160468409Y-62713096D01*
X160549221Y-62632284D01*
X160683908Y-62551471D01*
X160764720Y-62524534D01*
X160872470Y-62524534D01*
X160980219Y-62578409D01*
X161114906Y-62713096D01*
X148738155Y-89713841D02*
X148765093Y-89794653D01*
X148845905Y-89875465D01*
X148953654Y-89929340D01*
X149061404Y-89929340D01*
X149142216Y-89902402D01*
X149276903Y-89821590D01*
X149357715Y-89740778D01*
X149438528Y-89606091D01*
X149465465Y-89525279D01*
X149465465Y-89417529D01*
X149411590Y-89309780D01*
X149357715Y-89255905D01*
X149249966Y-89202030D01*
X149196091Y-89202030D01*
X149007529Y-89390592D01*
X149115279Y-89498341D01*
X149007529Y-88905719D02*
X148441844Y-89471404D01*
X148684280Y-88582470D01*
X148118595Y-89148155D01*
X148414906Y-88313096D02*
X147849221Y-88878781D01*
X147714534Y-88744094D01*
X147660659Y-88636345D01*
X147660659Y-88528595D01*
X147687597Y-88447783D01*
X147768409Y-88313096D01*
X147849221Y-88232284D01*
X147983908Y-88151471D01*
X148064720Y-88124534D01*
X148172470Y-88124534D01*
X148280219Y-88178409D01*
X148414906Y-88313096D01*
X146186592Y-64102277D02*
X146213529Y-64183089D01*
X146294341Y-64263902D01*
X146402091Y-64317776D01*
X146509841Y-64317776D01*
X146590653Y-64290839D01*
X146725340Y-64210027D01*
X146806152Y-64129215D01*
X146886964Y-63994528D01*
X146913902Y-63913715D01*
X146913902Y-63805966D01*
X146860027Y-63698216D01*
X146806152Y-63644341D01*
X146698402Y-63590467D01*
X146644528Y-63590467D01*
X146455966Y-63779028D01*
X146563715Y-63886778D01*
X146455966Y-63294155D02*
X145890280Y-63859841D01*
X145674781Y-63644341D01*
X145647844Y-63563529D01*
X145647844Y-63509654D01*
X145674781Y-63428842D01*
X145755593Y-63348030D01*
X145836406Y-63321093D01*
X145890280Y-63321093D01*
X145971093Y-63348030D01*
X146186592Y-63563529D01*
X145405407Y-63267218D02*
X145351532Y-63267218D01*
X145270720Y-63240280D01*
X145136033Y-63105593D01*
X145109096Y-63024781D01*
X145109096Y-62970906D01*
X145136033Y-62890094D01*
X145189908Y-62836219D01*
X145297658Y-62782345D01*
X145944155Y-62782345D01*
X145593969Y-62432158D01*
X144947471Y-62432158D02*
X144974409Y-62512971D01*
X144974409Y-62566845D01*
X144947471Y-62647658D01*
X144920534Y-62674595D01*
X144839722Y-62701532D01*
X144785847Y-62701532D01*
X144705035Y-62674595D01*
X144597285Y-62566845D01*
X144570348Y-62486033D01*
X144570348Y-62432158D01*
X144597285Y-62351346D01*
X144624223Y-62324409D01*
X144705035Y-62297471D01*
X144758910Y-62297471D01*
X144839722Y-62324409D01*
X144947471Y-62432158D01*
X145028284Y-62459096D01*
X145082158Y-62459096D01*
X145162971Y-62432158D01*
X145270720Y-62324409D01*
X145297658Y-62243597D01*
X145297658Y-62189722D01*
X145270720Y-62108910D01*
X145162971Y-62001160D01*
X145082158Y-61974223D01*
X145028284Y-61974223D01*
X144947471Y-62001160D01*
X144839722Y-62108910D01*
X144812784Y-62189722D01*
X144812784Y-62243597D01*
X144839722Y-62324409D01*
X158871218Y-89686903D02*
X158898155Y-89767715D01*
X158978967Y-89848528D01*
X159086717Y-89902402D01*
X159194467Y-89902402D01*
X159275279Y-89875465D01*
X159409966Y-89794653D01*
X159490778Y-89713841D01*
X159571590Y-89579154D01*
X159598528Y-89498341D01*
X159598528Y-89390592D01*
X159544653Y-89282842D01*
X159490778Y-89228967D01*
X159383028Y-89175093D01*
X159329154Y-89175093D01*
X159140592Y-89363654D01*
X159248341Y-89471404D01*
X159140592Y-88878781D02*
X158574906Y-89444467D01*
X158359407Y-89228967D01*
X158332470Y-89148155D01*
X158332470Y-89094280D01*
X158359407Y-89013468D01*
X158440219Y-88932656D01*
X158521032Y-88905719D01*
X158574906Y-88905719D01*
X158655719Y-88932656D01*
X158871218Y-89148155D01*
X158547969Y-88286158D02*
X158440219Y-88178409D01*
X158359407Y-88151471D01*
X158305532Y-88151471D01*
X158170845Y-88178409D01*
X158036158Y-88259221D01*
X157820659Y-88474720D01*
X157793722Y-88555532D01*
X157793722Y-88609407D01*
X157820659Y-88690219D01*
X157928409Y-88797969D01*
X158009221Y-88824906D01*
X158063096Y-88824906D01*
X158143908Y-88797969D01*
X158278595Y-88663282D01*
X158305532Y-88582470D01*
X158305532Y-88528595D01*
X158278595Y-88447783D01*
X158170845Y-88340033D01*
X158090033Y-88313096D01*
X158036158Y-88313096D01*
X157955346Y-88340033D01*
X181463809Y-72295238D02*
X181501904Y-72180952D01*
X181501904Y-71990476D01*
X181463809Y-71914285D01*
X181425714Y-71876190D01*
X181349523Y-71838095D01*
X181273333Y-71838095D01*
X181197142Y-71876190D01*
X181159047Y-71914285D01*
X181120952Y-71990476D01*
X181082857Y-72142857D01*
X181044761Y-72219047D01*
X181006666Y-72257142D01*
X180930476Y-72295238D01*
X180854285Y-72295238D01*
X180778095Y-72257142D01*
X180740000Y-72219047D01*
X180701904Y-72142857D01*
X180701904Y-71952380D01*
X180740000Y-71838095D01*
X180701904Y-71571428D02*
X181501904Y-71380952D01*
X180930476Y-71228571D01*
X181501904Y-71076190D01*
X180701904Y-70885714D01*
X181501904Y-70580952D02*
X180701904Y-70580952D01*
X180701904Y-70390476D01*
X180740000Y-70276190D01*
X180816190Y-70200000D01*
X180892380Y-70161904D01*
X181044761Y-70123809D01*
X181159047Y-70123809D01*
X181311428Y-70161904D01*
X181387619Y-70200000D01*
X181463809Y-70276190D01*
X181501904Y-70390476D01*
X181501904Y-70580952D01*
X181501904Y-69780952D02*
X180701904Y-69780952D01*
X180701904Y-69247619D02*
X180701904Y-69095238D01*
X180740000Y-69019047D01*
X180816190Y-68942857D01*
X180968571Y-68904761D01*
X181235238Y-68904761D01*
X181387619Y-68942857D01*
X181463809Y-69019047D01*
X181501904Y-69095238D01*
X181501904Y-69247619D01*
X181463809Y-69323809D01*
X181387619Y-69400000D01*
X181235238Y-69438095D01*
X180968571Y-69438095D01*
X180816190Y-69400000D01*
X180740000Y-69323809D01*
X180701904Y-69247619D01*
X146171218Y-89686903D02*
X146198155Y-89767715D01*
X146278967Y-89848528D01*
X146386717Y-89902402D01*
X146494467Y-89902402D01*
X146575279Y-89875465D01*
X146709966Y-89794653D01*
X146790778Y-89713841D01*
X146871590Y-89579154D01*
X146898528Y-89498341D01*
X146898528Y-89390592D01*
X146844653Y-89282842D01*
X146790778Y-89228967D01*
X146683028Y-89175093D01*
X146629154Y-89175093D01*
X146440592Y-89363654D01*
X146548341Y-89471404D01*
X146440592Y-88878781D02*
X145874906Y-89444467D01*
X145659407Y-89228967D01*
X145632470Y-89148155D01*
X145632470Y-89094280D01*
X145659407Y-89013468D01*
X145740219Y-88932656D01*
X145821032Y-88905719D01*
X145874906Y-88905719D01*
X145955719Y-88932656D01*
X146171218Y-89148155D01*
X145039847Y-88609407D02*
X145309221Y-88878781D01*
X145605532Y-88636345D01*
X145551658Y-88636345D01*
X145470845Y-88609407D01*
X145336158Y-88474720D01*
X145309221Y-88393908D01*
X145309221Y-88340033D01*
X145336158Y-88259221D01*
X145470845Y-88124534D01*
X145551658Y-88097597D01*
X145605532Y-88097597D01*
X145686345Y-88124534D01*
X145821032Y-88259221D01*
X145847969Y-88340033D01*
X145847969Y-88393908D01*
X130931218Y-89686903D02*
X130958155Y-89767715D01*
X131038967Y-89848528D01*
X131146717Y-89902402D01*
X131254467Y-89902402D01*
X131335279Y-89875465D01*
X131469966Y-89794653D01*
X131550778Y-89713841D01*
X131631590Y-89579154D01*
X131658528Y-89498341D01*
X131658528Y-89390592D01*
X131604653Y-89282842D01*
X131550778Y-89228967D01*
X131443028Y-89175093D01*
X131389154Y-89175093D01*
X131200592Y-89363654D01*
X131308341Y-89471404D01*
X131200592Y-88878781D02*
X130634906Y-89444467D01*
X130419407Y-89228967D01*
X130392470Y-89148155D01*
X130392470Y-89094280D01*
X130419407Y-89013468D01*
X130500219Y-88932656D01*
X130581032Y-88905719D01*
X130634906Y-88905719D01*
X130715719Y-88932656D01*
X130931218Y-89148155D01*
X129961471Y-88771032D02*
X129907597Y-88717157D01*
X129880659Y-88636345D01*
X129880659Y-88582470D01*
X129907597Y-88501658D01*
X129988409Y-88366971D01*
X130123096Y-88232284D01*
X130257783Y-88151471D01*
X130338595Y-88124534D01*
X130392470Y-88124534D01*
X130473282Y-88151471D01*
X130527157Y-88205346D01*
X130554094Y-88286158D01*
X130554094Y-88340033D01*
X130527157Y-88420845D01*
X130446345Y-88555532D01*
X130311658Y-88690219D01*
X130176971Y-88771032D01*
X130096158Y-88797969D01*
X130042284Y-88797969D01*
X129961471Y-88771032D01*
X141091218Y-89686903D02*
X141118155Y-89767715D01*
X141198967Y-89848528D01*
X141306717Y-89902402D01*
X141414467Y-89902402D01*
X141495279Y-89875465D01*
X141629966Y-89794653D01*
X141710778Y-89713841D01*
X141791590Y-89579154D01*
X141818528Y-89498341D01*
X141818528Y-89390592D01*
X141764653Y-89282842D01*
X141710778Y-89228967D01*
X141603028Y-89175093D01*
X141549154Y-89175093D01*
X141360592Y-89363654D01*
X141468341Y-89471404D01*
X141360592Y-88878781D02*
X140794906Y-89444467D01*
X140579407Y-89228967D01*
X140552470Y-89148155D01*
X140552470Y-89094280D01*
X140579407Y-89013468D01*
X140660219Y-88932656D01*
X140741032Y-88905719D01*
X140794906Y-88905719D01*
X140875719Y-88932656D01*
X141091218Y-89148155D01*
X140283096Y-88932656D02*
X139932910Y-88582470D01*
X140336971Y-88555532D01*
X140256158Y-88474720D01*
X140229221Y-88393908D01*
X140229221Y-88340033D01*
X140256158Y-88259221D01*
X140390845Y-88124534D01*
X140471658Y-88097597D01*
X140525532Y-88097597D01*
X140606345Y-88124534D01*
X140767969Y-88286158D01*
X140794906Y-88366971D01*
X140794906Y-88420845D01*
X174138155Y-89713841D02*
X174165093Y-89794653D01*
X174245905Y-89875465D01*
X174353654Y-89929340D01*
X174461404Y-89929340D01*
X174542216Y-89902402D01*
X174676903Y-89821590D01*
X174757715Y-89740778D01*
X174838528Y-89606091D01*
X174865465Y-89525279D01*
X174865465Y-89417529D01*
X174811590Y-89309780D01*
X174757715Y-89255905D01*
X174649966Y-89202030D01*
X174596091Y-89202030D01*
X174407529Y-89390592D01*
X174515279Y-89498341D01*
X174407529Y-88905719D02*
X173841844Y-89471404D01*
X174084280Y-88582470D01*
X173518595Y-89148155D01*
X173814906Y-88313096D02*
X173249221Y-88878781D01*
X173114534Y-88744094D01*
X173060659Y-88636345D01*
X173060659Y-88528595D01*
X173087597Y-88447783D01*
X173168409Y-88313096D01*
X173249221Y-88232284D01*
X173383908Y-88151471D01*
X173464720Y-88124534D01*
X173572470Y-88124534D01*
X173680219Y-88178409D01*
X173814906Y-88313096D01*
X136038155Y-89713841D02*
X136065093Y-89794653D01*
X136145905Y-89875465D01*
X136253654Y-89929340D01*
X136361404Y-89929340D01*
X136442216Y-89902402D01*
X136576903Y-89821590D01*
X136657715Y-89740778D01*
X136738528Y-89606091D01*
X136765465Y-89525279D01*
X136765465Y-89417529D01*
X136711590Y-89309780D01*
X136657715Y-89255905D01*
X136549966Y-89202030D01*
X136496091Y-89202030D01*
X136307529Y-89390592D01*
X136415279Y-89498341D01*
X136307529Y-88905719D02*
X135741844Y-89471404D01*
X135984280Y-88582470D01*
X135418595Y-89148155D01*
X135714906Y-88313096D02*
X135149221Y-88878781D01*
X135014534Y-88744094D01*
X134960659Y-88636345D01*
X134960659Y-88528595D01*
X134987597Y-88447783D01*
X135068409Y-88313096D01*
X135149221Y-88232284D01*
X135283908Y-88151471D01*
X135364720Y-88124534D01*
X135472470Y-88124534D01*
X135580219Y-88178409D01*
X135714906Y-88313096D01*
X166760592Y-64102277D02*
X166787529Y-64183089D01*
X166868341Y-64263902D01*
X166976091Y-64317776D01*
X167083841Y-64317776D01*
X167164653Y-64290839D01*
X167299340Y-64210027D01*
X167380152Y-64129215D01*
X167460964Y-63994528D01*
X167487902Y-63913715D01*
X167487902Y-63805966D01*
X167434027Y-63698216D01*
X167380152Y-63644341D01*
X167272402Y-63590467D01*
X167218528Y-63590467D01*
X167029966Y-63779028D01*
X167137715Y-63886778D01*
X167029966Y-63294155D02*
X166464280Y-63859841D01*
X166248781Y-63644341D01*
X166221844Y-63563529D01*
X166221844Y-63509654D01*
X166248781Y-63428842D01*
X166329593Y-63348030D01*
X166410406Y-63321093D01*
X166464280Y-63321093D01*
X166545093Y-63348030D01*
X166760592Y-63563529D01*
X165979407Y-63267218D02*
X165925532Y-63267218D01*
X165844720Y-63240280D01*
X165710033Y-63105593D01*
X165683096Y-63024781D01*
X165683096Y-62970906D01*
X165710033Y-62890094D01*
X165763908Y-62836219D01*
X165871658Y-62782345D01*
X166518155Y-62782345D01*
X166167969Y-62432158D01*
X165252097Y-62647658D02*
X165198223Y-62593783D01*
X165171285Y-62512971D01*
X165171285Y-62459096D01*
X165198223Y-62378284D01*
X165279035Y-62243597D01*
X165413722Y-62108910D01*
X165548409Y-62028097D01*
X165629221Y-62001160D01*
X165683096Y-62001160D01*
X165763908Y-62028097D01*
X165817783Y-62081972D01*
X165844720Y-62162784D01*
X165844720Y-62216659D01*
X165817783Y-62297471D01*
X165736971Y-62432158D01*
X165602284Y-62566845D01*
X165467597Y-62647658D01*
X165386784Y-62674595D01*
X165332910Y-62674595D01*
X165252097Y-62647658D01*
X169300592Y-64102277D02*
X169327529Y-64183089D01*
X169408341Y-64263902D01*
X169516091Y-64317776D01*
X169623841Y-64317776D01*
X169704653Y-64290839D01*
X169839340Y-64210027D01*
X169920152Y-64129215D01*
X170000964Y-63994528D01*
X170027902Y-63913715D01*
X170027902Y-63805966D01*
X169974027Y-63698216D01*
X169920152Y-63644341D01*
X169812402Y-63590467D01*
X169758528Y-63590467D01*
X169569966Y-63779028D01*
X169677715Y-63886778D01*
X169569966Y-63294155D02*
X169004280Y-63859841D01*
X168788781Y-63644341D01*
X168761844Y-63563529D01*
X168761844Y-63509654D01*
X168788781Y-63428842D01*
X168869593Y-63348030D01*
X168950406Y-63321093D01*
X169004280Y-63321093D01*
X169085093Y-63348030D01*
X169300592Y-63563529D01*
X168707969Y-62432158D02*
X169031218Y-62755407D01*
X168869593Y-62593783D02*
X168303908Y-63159468D01*
X168438595Y-63132531D01*
X168546345Y-63132531D01*
X168627157Y-63159468D01*
X168438595Y-62162784D02*
X168330845Y-62055035D01*
X168250033Y-62028097D01*
X168196158Y-62028097D01*
X168061471Y-62055035D01*
X167926784Y-62135847D01*
X167711285Y-62351346D01*
X167684348Y-62432158D01*
X167684348Y-62486033D01*
X167711285Y-62566845D01*
X167819035Y-62674595D01*
X167899847Y-62701532D01*
X167953722Y-62701532D01*
X168034534Y-62674595D01*
X168169221Y-62539908D01*
X168196158Y-62459096D01*
X168196158Y-62405221D01*
X168169221Y-62324409D01*
X168061471Y-62216659D01*
X167980659Y-62189722D01*
X167926784Y-62189722D01*
X167845972Y-62216659D01*
X138551218Y-89786903D02*
X138578155Y-89867715D01*
X138658967Y-89948528D01*
X138766717Y-90002402D01*
X138874467Y-90002402D01*
X138955279Y-89975465D01*
X139089966Y-89894653D01*
X139170778Y-89813841D01*
X139251590Y-89679154D01*
X139278528Y-89598341D01*
X139278528Y-89490592D01*
X139224653Y-89382842D01*
X139170778Y-89328967D01*
X139063028Y-89275093D01*
X139009154Y-89275093D01*
X138820592Y-89463654D01*
X138928341Y-89571404D01*
X138820592Y-88978781D02*
X138254906Y-89544467D01*
X138039407Y-89328967D01*
X138012470Y-89248155D01*
X138012470Y-89194280D01*
X138039407Y-89113468D01*
X138120219Y-89032656D01*
X138201032Y-89005719D01*
X138254906Y-89005719D01*
X138335719Y-89032656D01*
X138551218Y-89248155D01*
X137770033Y-88951844D02*
X137716158Y-88951844D01*
X137635346Y-88924906D01*
X137500659Y-88790219D01*
X137473722Y-88709407D01*
X137473722Y-88655532D01*
X137500659Y-88574720D01*
X137554534Y-88520845D01*
X137662284Y-88466971D01*
X138308781Y-88466971D01*
X137958595Y-88116784D01*
X171840592Y-64102277D02*
X171867529Y-64183089D01*
X171948341Y-64263902D01*
X172056091Y-64317776D01*
X172163841Y-64317776D01*
X172244653Y-64290839D01*
X172379340Y-64210027D01*
X172460152Y-64129215D01*
X172540964Y-63994528D01*
X172567902Y-63913715D01*
X172567902Y-63805966D01*
X172514027Y-63698216D01*
X172460152Y-63644341D01*
X172352402Y-63590467D01*
X172298528Y-63590467D01*
X172109966Y-63779028D01*
X172217715Y-63886778D01*
X172109966Y-63294155D02*
X171544280Y-63859841D01*
X171328781Y-63644341D01*
X171301844Y-63563529D01*
X171301844Y-63509654D01*
X171328781Y-63428842D01*
X171409593Y-63348030D01*
X171490406Y-63321093D01*
X171544280Y-63321093D01*
X171625093Y-63348030D01*
X171840592Y-63563529D01*
X171247969Y-62432158D02*
X171571218Y-62755407D01*
X171409593Y-62593783D02*
X170843908Y-63159468D01*
X170978595Y-63132531D01*
X171086345Y-63132531D01*
X171167157Y-63159468D01*
X170601471Y-62432158D02*
X170628409Y-62512971D01*
X170628409Y-62566845D01*
X170601471Y-62647658D01*
X170574534Y-62674595D01*
X170493722Y-62701532D01*
X170439847Y-62701532D01*
X170359035Y-62674595D01*
X170251285Y-62566845D01*
X170224348Y-62486033D01*
X170224348Y-62432158D01*
X170251285Y-62351346D01*
X170278223Y-62324409D01*
X170359035Y-62297471D01*
X170412910Y-62297471D01*
X170493722Y-62324409D01*
X170601471Y-62432158D01*
X170682284Y-62459096D01*
X170736158Y-62459096D01*
X170816971Y-62432158D01*
X170924720Y-62324409D01*
X170951658Y-62243597D01*
X170951658Y-62189722D01*
X170924720Y-62108910D01*
X170816971Y-62001160D01*
X170736158Y-61974223D01*
X170682284Y-61974223D01*
X170601471Y-62001160D01*
X170493722Y-62108910D01*
X170466784Y-62189722D01*
X170466784Y-62243597D01*
X170493722Y-62324409D01*
X151251218Y-89686903D02*
X151278155Y-89767715D01*
X151358967Y-89848528D01*
X151466717Y-89902402D01*
X151574467Y-89902402D01*
X151655279Y-89875465D01*
X151789966Y-89794653D01*
X151870778Y-89713841D01*
X151951590Y-89579154D01*
X151978528Y-89498341D01*
X151978528Y-89390592D01*
X151924653Y-89282842D01*
X151870778Y-89228967D01*
X151763028Y-89175093D01*
X151709154Y-89175093D01*
X151520592Y-89363654D01*
X151628341Y-89471404D01*
X151520592Y-88878781D02*
X150954906Y-89444467D01*
X150739407Y-89228967D01*
X150712470Y-89148155D01*
X150712470Y-89094280D01*
X150739407Y-89013468D01*
X150820219Y-88932656D01*
X150901032Y-88905719D01*
X150954906Y-88905719D01*
X151035719Y-88932656D01*
X151251218Y-89148155D01*
X150146784Y-88636345D02*
X150254534Y-88744094D01*
X150335346Y-88771032D01*
X150389221Y-88771032D01*
X150523908Y-88744094D01*
X150658595Y-88663282D01*
X150874094Y-88447783D01*
X150901032Y-88366971D01*
X150901032Y-88313096D01*
X150874094Y-88232284D01*
X150766345Y-88124534D01*
X150685532Y-88097597D01*
X150631658Y-88097597D01*
X150550845Y-88124534D01*
X150416158Y-88259221D01*
X150389221Y-88340033D01*
X150389221Y-88393908D01*
X150416158Y-88474720D01*
X150523908Y-88582470D01*
X150604720Y-88609407D01*
X150658595Y-88609407D01*
X150739407Y-88582470D01*
X164230592Y-64102277D02*
X164257529Y-64183089D01*
X164338341Y-64263902D01*
X164446091Y-64317776D01*
X164553841Y-64317776D01*
X164634653Y-64290839D01*
X164769340Y-64210027D01*
X164850152Y-64129215D01*
X164930964Y-63994528D01*
X164957902Y-63913715D01*
X164957902Y-63805966D01*
X164904027Y-63698216D01*
X164850152Y-63644341D01*
X164742402Y-63590467D01*
X164688528Y-63590467D01*
X164499966Y-63779028D01*
X164607715Y-63886778D01*
X164499966Y-63294155D02*
X163934280Y-63859841D01*
X163718781Y-63644341D01*
X163691844Y-63563529D01*
X163691844Y-63509654D01*
X163718781Y-63428842D01*
X163799593Y-63348030D01*
X163880406Y-63321093D01*
X163934280Y-63321093D01*
X164015093Y-63348030D01*
X164230592Y-63563529D01*
X163449407Y-63267218D02*
X163395532Y-63267218D01*
X163314720Y-63240280D01*
X163180033Y-63105593D01*
X163153096Y-63024781D01*
X163153096Y-62970906D01*
X163180033Y-62890094D01*
X163233908Y-62836219D01*
X163341658Y-62782345D01*
X163988155Y-62782345D01*
X163637969Y-62432158D01*
X163099221Y-61893410D02*
X163422470Y-62216659D01*
X163260845Y-62055035D02*
X162695160Y-62620720D01*
X162829847Y-62593783D01*
X162937597Y-62593783D01*
X163018409Y-62620720D01*
X159140592Y-64102277D02*
X159167529Y-64183089D01*
X159248341Y-64263902D01*
X159356091Y-64317776D01*
X159463841Y-64317776D01*
X159544653Y-64290839D01*
X159679340Y-64210027D01*
X159760152Y-64129215D01*
X159840964Y-63994528D01*
X159867902Y-63913715D01*
X159867902Y-63805966D01*
X159814027Y-63698216D01*
X159760152Y-63644341D01*
X159652402Y-63590467D01*
X159598528Y-63590467D01*
X159409966Y-63779028D01*
X159517715Y-63886778D01*
X159409966Y-63294155D02*
X158844280Y-63859841D01*
X158628781Y-63644341D01*
X158601844Y-63563529D01*
X158601844Y-63509654D01*
X158628781Y-63428842D01*
X158709593Y-63348030D01*
X158790406Y-63321093D01*
X158844280Y-63321093D01*
X158925093Y-63348030D01*
X159140592Y-63563529D01*
X158359407Y-63267218D02*
X158305532Y-63267218D01*
X158224720Y-63240280D01*
X158090033Y-63105593D01*
X158063096Y-63024781D01*
X158063096Y-62970906D01*
X158090033Y-62890094D01*
X158143908Y-62836219D01*
X158251658Y-62782345D01*
X158898155Y-62782345D01*
X158547969Y-62432158D01*
X157820659Y-62728470D02*
X157766784Y-62728470D01*
X157685972Y-62701532D01*
X157551285Y-62566845D01*
X157524348Y-62486033D01*
X157524348Y-62432158D01*
X157551285Y-62351346D01*
X157605160Y-62297471D01*
X157712910Y-62243597D01*
X158359407Y-62243597D01*
X158009221Y-61893410D01*
X161438155Y-89713841D02*
X161465093Y-89794653D01*
X161545905Y-89875465D01*
X161653654Y-89929340D01*
X161761404Y-89929340D01*
X161842216Y-89902402D01*
X161976903Y-89821590D01*
X162057715Y-89740778D01*
X162138528Y-89606091D01*
X162165465Y-89525279D01*
X162165465Y-89417529D01*
X162111590Y-89309780D01*
X162057715Y-89255905D01*
X161949966Y-89202030D01*
X161896091Y-89202030D01*
X161707529Y-89390592D01*
X161815279Y-89498341D01*
X161707529Y-88905719D02*
X161141844Y-89471404D01*
X161384280Y-88582470D01*
X160818595Y-89148155D01*
X161114906Y-88313096D02*
X160549221Y-88878781D01*
X160414534Y-88744094D01*
X160360659Y-88636345D01*
X160360659Y-88528595D01*
X160387597Y-88447783D01*
X160468409Y-88313096D01*
X160549221Y-88232284D01*
X160683908Y-88151471D01*
X160764720Y-88124534D01*
X160872470Y-88124534D01*
X160980219Y-88178409D01*
X161114906Y-88313096D01*
X176920592Y-90256277D02*
X176947529Y-90337089D01*
X177028341Y-90417902D01*
X177136091Y-90471776D01*
X177243841Y-90471776D01*
X177324653Y-90444839D01*
X177459340Y-90364027D01*
X177540152Y-90283215D01*
X177620964Y-90148528D01*
X177647902Y-90067715D01*
X177647902Y-89959966D01*
X177594027Y-89852216D01*
X177540152Y-89798341D01*
X177432402Y-89744467D01*
X177378528Y-89744467D01*
X177189966Y-89933028D01*
X177297715Y-90040778D01*
X177189966Y-89448155D02*
X176624280Y-90013841D01*
X176408781Y-89798341D01*
X176381844Y-89717529D01*
X176381844Y-89663654D01*
X176408781Y-89582842D01*
X176489593Y-89502030D01*
X176570406Y-89475093D01*
X176624280Y-89475093D01*
X176705093Y-89502030D01*
X176920592Y-89717529D01*
X176327969Y-88586158D02*
X176651218Y-88909407D01*
X176489593Y-88747783D02*
X175923908Y-89313468D01*
X176058595Y-89286531D01*
X176166345Y-89286531D01*
X176247157Y-89313468D01*
X175465972Y-88478409D02*
X175843096Y-88101285D01*
X175385160Y-88828595D02*
X175923908Y-88559221D01*
X175573722Y-88209035D01*
X134009966Y-64279526D02*
X134387089Y-63525279D01*
X133632842Y-63902402D01*
X134009966Y-63202030D02*
X133956091Y-63094280D01*
X133821404Y-62959593D01*
X133740592Y-62932656D01*
X133686717Y-62932656D01*
X133605905Y-62959593D01*
X133552030Y-63013468D01*
X133525093Y-63094280D01*
X133525093Y-63148155D01*
X133552030Y-63228967D01*
X133632842Y-63363654D01*
X133659780Y-63444467D01*
X133659780Y-63498341D01*
X133632842Y-63579154D01*
X133578967Y-63633028D01*
X133498155Y-63659966D01*
X133444280Y-63659966D01*
X133363468Y-63633028D01*
X133228781Y-63498341D01*
X133174906Y-63390592D01*
X133094094Y-62771032D02*
X133363468Y-62501658D01*
X132986345Y-63255905D02*
X133094094Y-62771032D01*
X132609221Y-62878781D01*
X132986345Y-62178409D02*
X132932470Y-62070659D01*
X132797783Y-61935972D01*
X132716971Y-61909035D01*
X132663096Y-61909035D01*
X132582284Y-61935972D01*
X132528409Y-61989847D01*
X132501471Y-62070659D01*
X132501471Y-62124534D01*
X132528409Y-62205346D01*
X132609221Y-62340033D01*
X132636158Y-62420845D01*
X132636158Y-62474720D01*
X132609221Y-62555532D01*
X132555346Y-62609407D01*
X132474534Y-62636345D01*
X132420659Y-62636345D01*
X132339847Y-62609407D01*
X132205160Y-62474720D01*
X132151285Y-62366971D01*
X169300592Y-90356277D02*
X169327529Y-90437089D01*
X169408341Y-90517902D01*
X169516091Y-90571776D01*
X169623841Y-90571776D01*
X169704653Y-90544839D01*
X169839340Y-90464027D01*
X169920152Y-90383215D01*
X170000964Y-90248528D01*
X170027902Y-90167715D01*
X170027902Y-90059966D01*
X169974027Y-89952216D01*
X169920152Y-89898341D01*
X169812402Y-89844467D01*
X169758528Y-89844467D01*
X169569966Y-90033028D01*
X169677715Y-90140778D01*
X169569966Y-89548155D02*
X169004280Y-90113841D01*
X168788781Y-89898341D01*
X168761844Y-89817529D01*
X168761844Y-89763654D01*
X168788781Y-89682842D01*
X168869593Y-89602030D01*
X168950406Y-89575093D01*
X169004280Y-89575093D01*
X169085093Y-89602030D01*
X169300592Y-89817529D01*
X168707969Y-88686158D02*
X169031218Y-89009407D01*
X168869593Y-88847783D02*
X168303908Y-89413468D01*
X168438595Y-89386531D01*
X168546345Y-89386531D01*
X168627157Y-89413468D01*
X167980659Y-88982470D02*
X167926784Y-88982470D01*
X167845972Y-88955532D01*
X167711285Y-88820845D01*
X167684348Y-88740033D01*
X167684348Y-88686158D01*
X167711285Y-88605346D01*
X167765160Y-88551471D01*
X167872910Y-88497597D01*
X168519407Y-88497597D01*
X168169221Y-88147410D01*
X133461218Y-89786903D02*
X133488155Y-89867715D01*
X133568967Y-89948528D01*
X133676717Y-90002402D01*
X133784467Y-90002402D01*
X133865279Y-89975465D01*
X133999966Y-89894653D01*
X134080778Y-89813841D01*
X134161590Y-89679154D01*
X134188528Y-89598341D01*
X134188528Y-89490592D01*
X134134653Y-89382842D01*
X134080778Y-89328967D01*
X133973028Y-89275093D01*
X133919154Y-89275093D01*
X133730592Y-89463654D01*
X133838341Y-89571404D01*
X133730592Y-88978781D02*
X133164906Y-89544467D01*
X132949407Y-89328967D01*
X132922470Y-89248155D01*
X132922470Y-89194280D01*
X132949407Y-89113468D01*
X133030219Y-89032656D01*
X133111032Y-89005719D01*
X133164906Y-89005719D01*
X133245719Y-89032656D01*
X133461218Y-89248155D01*
X132868595Y-88116784D02*
X133191844Y-88440033D01*
X133030219Y-88278409D02*
X132464534Y-88844094D01*
X132599221Y-88817157D01*
X132706971Y-88817157D01*
X132787783Y-88844094D01*
X164220592Y-90210277D02*
X164247529Y-90291089D01*
X164328341Y-90371902D01*
X164436091Y-90425776D01*
X164543841Y-90425776D01*
X164624653Y-90398839D01*
X164759340Y-90318027D01*
X164840152Y-90237215D01*
X164920964Y-90102528D01*
X164947902Y-90021715D01*
X164947902Y-89913966D01*
X164894027Y-89806216D01*
X164840152Y-89752341D01*
X164732402Y-89698467D01*
X164678528Y-89698467D01*
X164489966Y-89887028D01*
X164597715Y-89994778D01*
X164489966Y-89402155D02*
X163924280Y-89967841D01*
X163708781Y-89752341D01*
X163681844Y-89671529D01*
X163681844Y-89617654D01*
X163708781Y-89536842D01*
X163789593Y-89456030D01*
X163870406Y-89429093D01*
X163924280Y-89429093D01*
X164005093Y-89456030D01*
X164220592Y-89671529D01*
X163627969Y-88540158D02*
X163951218Y-88863407D01*
X163789593Y-88701783D02*
X163223908Y-89267468D01*
X163358595Y-89240531D01*
X163466345Y-89240531D01*
X163547157Y-89267468D01*
X162712097Y-88755658D02*
X162658223Y-88701783D01*
X162631285Y-88620971D01*
X162631285Y-88567096D01*
X162658223Y-88486284D01*
X162739035Y-88351597D01*
X162873722Y-88216910D01*
X163008409Y-88136097D01*
X163089221Y-88109160D01*
X163143096Y-88109160D01*
X163223908Y-88136097D01*
X163277783Y-88189972D01*
X163304720Y-88270784D01*
X163304720Y-88324659D01*
X163277783Y-88405471D01*
X163196971Y-88540158D01*
X163062284Y-88674845D01*
X162927597Y-88755658D01*
X162846784Y-88782595D01*
X162792910Y-88782595D01*
X162712097Y-88755658D01*
X156883435Y-63361624D02*
X156802622Y-63819560D01*
X157206683Y-63684873D02*
X156640998Y-64250558D01*
X156425499Y-64035059D01*
X156398561Y-63954247D01*
X156398561Y-63900372D01*
X156425499Y-63819560D01*
X156506311Y-63738748D01*
X156587123Y-63711810D01*
X156640998Y-63711810D01*
X156721810Y-63738748D01*
X156937309Y-63954247D01*
X156075312Y-63684873D02*
X156533248Y-63226937D01*
X156560186Y-63146125D01*
X156560186Y-63092250D01*
X156533248Y-63011438D01*
X156425499Y-62903688D01*
X156344687Y-62876751D01*
X156290812Y-62876751D01*
X156210000Y-62903688D01*
X155752064Y-63361624D01*
X156048375Y-62526564D02*
X155482690Y-63092250D01*
X155725126Y-62203316D01*
X155159441Y-62769001D01*
X151530592Y-64102277D02*
X151557529Y-64183089D01*
X151638341Y-64263902D01*
X151746091Y-64317776D01*
X151853841Y-64317776D01*
X151934653Y-64290839D01*
X152069340Y-64210027D01*
X152150152Y-64129215D01*
X152230964Y-63994528D01*
X152257902Y-63913715D01*
X152257902Y-63805966D01*
X152204027Y-63698216D01*
X152150152Y-63644341D01*
X152042402Y-63590467D01*
X151988528Y-63590467D01*
X151799966Y-63779028D01*
X151907715Y-63886778D01*
X151799966Y-63294155D02*
X151234280Y-63859841D01*
X151018781Y-63644341D01*
X150991844Y-63563529D01*
X150991844Y-63509654D01*
X151018781Y-63428842D01*
X151099593Y-63348030D01*
X151180406Y-63321093D01*
X151234280Y-63321093D01*
X151315093Y-63348030D01*
X151530592Y-63563529D01*
X150749407Y-63267218D02*
X150695532Y-63267218D01*
X150614720Y-63240280D01*
X150480033Y-63105593D01*
X150453096Y-63024781D01*
X150453096Y-62970906D01*
X150480033Y-62890094D01*
X150533908Y-62836219D01*
X150641658Y-62782345D01*
X151288155Y-62782345D01*
X150937969Y-62432158D01*
X150183722Y-62809282D02*
X149806598Y-62432158D01*
X150614720Y-62108910D01*
X158202380Y-104266904D02*
X159011904Y-104266904D01*
X159107142Y-104219285D01*
X159154761Y-104171666D01*
X159202380Y-104076428D01*
X159202380Y-103885952D01*
X159154761Y-103790714D01*
X159107142Y-103743095D01*
X159011904Y-103695476D01*
X158202380Y-103695476D01*
X159202380Y-102695476D02*
X159202380Y-103266904D01*
X159202380Y-102981190D02*
X158202380Y-102981190D01*
X158345238Y-103076428D01*
X158440476Y-103171666D01*
X158488095Y-103266904D01*
X112670308Y-110643748D02*
X113255417Y-111053445D01*
X113345125Y-111174392D01*
X113368513Y-111307033D01*
X113325581Y-111451368D01*
X113270955Y-111529382D01*
X112888813Y-110331690D02*
X113243885Y-109824596D01*
X113364750Y-110316152D01*
X113446690Y-110199130D01*
X113540323Y-110148429D01*
X113606644Y-110136735D01*
X113711971Y-110152354D01*
X113907008Y-110288920D01*
X113957709Y-110382553D01*
X113969403Y-110448874D01*
X113953784Y-110554201D01*
X113789905Y-110788245D01*
X113696271Y-110838946D01*
X113629951Y-110850640D01*
X180002380Y-56213333D02*
X180716666Y-56213333D01*
X180859523Y-56260952D01*
X180954761Y-56356190D01*
X181002380Y-56499047D01*
X181002380Y-56594285D01*
X180002380Y-55832380D02*
X180002380Y-55165714D01*
X181002380Y-55594285D01*
X184662380Y-122253333D02*
X185376666Y-122253333D01*
X185519523Y-122300952D01*
X185614761Y-122396190D01*
X185662380Y-122539047D01*
X185662380Y-122634285D01*
X184662380Y-121348571D02*
X184662380Y-121539047D01*
X184710000Y-121634285D01*
X184757619Y-121681904D01*
X184900476Y-121777142D01*
X185090952Y-121824761D01*
X185471904Y-121824761D01*
X185567142Y-121777142D01*
X185614761Y-121729523D01*
X185662380Y-121634285D01*
X185662380Y-121443809D01*
X185614761Y-121348571D01*
X185567142Y-121300952D01*
X185471904Y-121253333D01*
X185233809Y-121253333D01*
X185138571Y-121300952D01*
X185090952Y-121348571D01*
X185043333Y-121443809D01*
X185043333Y-121634285D01*
X185090952Y-121729523D01*
X185138571Y-121777142D01*
X185233809Y-121824761D01*
X122942322Y-60617508D02*
X123489496Y-60158374D01*
X123629540Y-60103026D01*
X123763714Y-60114765D01*
X123892020Y-60193591D01*
X123953237Y-60266547D01*
X123065578Y-59208676D02*
X123432886Y-59646416D01*
X123249232Y-59427546D02*
X122483188Y-60070334D01*
X122653840Y-60051464D01*
X122788015Y-60063202D01*
X122885711Y-60105550D01*
X156511666Y-106342380D02*
X156511666Y-107056666D01*
X156464047Y-107199523D01*
X156368809Y-107294761D01*
X156225952Y-107342380D01*
X156130714Y-107342380D01*
X157464047Y-106342380D02*
X156987857Y-106342380D01*
X156940238Y-106818571D01*
X156987857Y-106770952D01*
X157083095Y-106723333D01*
X157321190Y-106723333D01*
X157416428Y-106770952D01*
X157464047Y-106818571D01*
X157511666Y-106913809D01*
X157511666Y-107151904D01*
X157464047Y-107247142D01*
X157416428Y-107294761D01*
X157321190Y-107342380D01*
X157083095Y-107342380D01*
X156987857Y-107294761D01*
X156940238Y-107247142D01*
X112696666Y-80312380D02*
X112696666Y-81026666D01*
X112649047Y-81169523D01*
X112553809Y-81264761D01*
X112410952Y-81312380D01*
X112315714Y-81312380D01*
X113125238Y-80407619D02*
X113172857Y-80360000D01*
X113268095Y-80312380D01*
X113506190Y-80312380D01*
X113601428Y-80360000D01*
X113649047Y-80407619D01*
X113696666Y-80502857D01*
X113696666Y-80598095D01*
X113649047Y-80740952D01*
X113077619Y-81312380D01*
X113696666Y-81312380D01*
X134912380Y-58753333D02*
X135626666Y-58753333D01*
X135769523Y-58800952D01*
X135864761Y-58896190D01*
X135912380Y-59039047D01*
X135912380Y-59134285D01*
X135245714Y-57848571D02*
X135912380Y-57848571D01*
X134864761Y-58086666D02*
X135579047Y-58324761D01*
X135579047Y-57705714D01*
D11*
X159840000Y-65700000D02*
X160240000Y-65700000D01*
X131840000Y-86700000D02*
X132240000Y-86700000D01*
X134440000Y-86700000D02*
X134840000Y-86700000D01*
X164940000Y-65700000D02*
X165340000Y-65700000D01*
X180440000Y-79900000D02*
X180440000Y-86700000D01*
X154740000Y-65700000D02*
X155140000Y-65700000D01*
X177640000Y-65700000D02*
X178040000Y-65700000D01*
X131840000Y-65700000D02*
X132240000Y-65700000D01*
X132107000Y-83693000D02*
X129440000Y-83693000D01*
X149640000Y-65700000D02*
X150040000Y-65700000D01*
X129440000Y-86700000D02*
X129440000Y-65700000D01*
X175040000Y-86700000D02*
X175440000Y-86700000D01*
X152240000Y-86700000D02*
X152640000Y-86700000D01*
X177640000Y-86700000D02*
X178040000Y-86700000D01*
X139540000Y-86700000D02*
X139940000Y-86700000D01*
X149640000Y-86700000D02*
X150040000Y-86700000D01*
X152240000Y-65700000D02*
X152640000Y-65700000D01*
X180440000Y-65700000D02*
X180440000Y-72500000D01*
X139540000Y-65700000D02*
X139940000Y-65700000D01*
X162340000Y-86700000D02*
X162740000Y-86700000D01*
X132107000Y-86700000D02*
X132107000Y-83693000D01*
X147140000Y-86700000D02*
X147540000Y-86700000D01*
X159840000Y-86700000D02*
X160240000Y-86700000D01*
X180440000Y-77700000D02*
X180440000Y-77300000D01*
X142040000Y-86700000D02*
X142440000Y-86700000D01*
X134440000Y-65700000D02*
X134840000Y-65700000D01*
X170040000Y-86700000D02*
X170440000Y-86700000D01*
X180440000Y-75100000D02*
X180440000Y-74700000D01*
X142040000Y-65700000D02*
X142440000Y-65700000D01*
X164940000Y-86700000D02*
X165340000Y-86700000D01*
X157240000Y-65700000D02*
X157640000Y-65700000D01*
X144540000Y-86700000D02*
X144940000Y-86700000D01*
X154740000Y-86700000D02*
X155140000Y-86700000D01*
X172540000Y-86700000D02*
X172940000Y-86700000D01*
X167440000Y-86700000D02*
X167840000Y-86700000D01*
X162340000Y-65700000D02*
X162740000Y-65700000D01*
X144540000Y-65700000D02*
X144940000Y-65700000D01*
X172540000Y-65700000D02*
X172940000Y-65700000D01*
X147140000Y-65700000D02*
X147540000Y-65700000D01*
X129440000Y-86700000D02*
X129740000Y-86700000D01*
X175040000Y-65700000D02*
X175440000Y-65700000D01*
X167440000Y-65700000D02*
X167840000Y-65700000D01*
X136940000Y-65700000D02*
X137340000Y-65700000D01*
X157240000Y-86700000D02*
X157640000Y-86700000D01*
X129440000Y-65700000D02*
X129740000Y-65700000D01*
X136940000Y-86700000D02*
X137340000Y-86700000D01*
X170040000Y-65700000D02*
X170440000Y-65700000D01*
D12*
X180340000Y-113030000D02*
X180340000Y-114300000D01*
X180340000Y-110640000D02*
X180340000Y-97640000D01*
X160020000Y-110640000D02*
X160020000Y-97640000D01*
X160020000Y-113030000D02*
X160020000Y-114300000D01*
X180340000Y-95250000D02*
X180340000Y-93980000D01*
X160020000Y-114300000D02*
X180340000Y-114300000D01*
X160020000Y-95250000D02*
X160020000Y-93980000D01*
X180340000Y-93980000D02*
X160020000Y-93980000D01*
D13*
X159551800Y-111760000D02*
G75*
G03*
X159551800Y-111760000I-100000J0D01*
G01*
D11*
X115496174Y-113839146D02*
X123867908Y-119701097D01*
X117021888Y-111660202D02*
X125393622Y-117522153D01*
X123867908Y-119701097D02*
X125393622Y-117522153D01*
X114455851Y-113110704D02*
X113366379Y-112347848D01*
X113366379Y-112347848D02*
X114129236Y-111258375D01*
X115496174Y-113839146D02*
X117021888Y-111660202D01*
X184150000Y-57210000D02*
X186750000Y-57210000D01*
X181550000Y-57210000D02*
X181550000Y-55880000D01*
X186750000Y-57210000D02*
X186750000Y-54550000D01*
X184150000Y-54550000D02*
X186750000Y-54550000D01*
X182880000Y-57210000D02*
X181550000Y-57210000D01*
X184150000Y-57210000D02*
X184150000Y-54550000D01*
X182880000Y-120590000D02*
X184210000Y-120590000D01*
X184210000Y-120590000D02*
X184210000Y-121920000D01*
X181610000Y-123250000D02*
X179010000Y-123250000D01*
X179010000Y-120590000D02*
X179010000Y-123250000D01*
X181610000Y-120590000D02*
X179010000Y-120590000D01*
X181610000Y-120590000D02*
X181610000Y-123250000D01*
X119534892Y-61305354D02*
X121244707Y-63343032D01*
X121244707Y-63343032D02*
X113415733Y-69912322D01*
X121526608Y-59634106D02*
X122381515Y-60652945D01*
X119534892Y-61305354D02*
X111705918Y-67874644D01*
X120507768Y-60489014D02*
X121526608Y-59634106D01*
X111705918Y-67874644D02*
X113415733Y-69912322D01*
X155515000Y-110490000D02*
X158175000Y-110490000D01*
X155515000Y-110490000D02*
X155515000Y-110550000D01*
X155515000Y-107890000D02*
X156845000Y-107890000D01*
X158175000Y-110490000D02*
X158175000Y-110550000D01*
X155515000Y-110550000D02*
X158175000Y-110550000D01*
X155515000Y-109220000D02*
X155515000Y-107890000D01*
X114360000Y-84460000D02*
X114360000Y-94680000D01*
X111700000Y-84460000D02*
X111700000Y-94680000D01*
X111700000Y-94680000D02*
X114360000Y-94680000D01*
X111700000Y-81860000D02*
X113030000Y-81860000D01*
X111700000Y-84460000D02*
X114360000Y-84460000D01*
X111700000Y-83190000D02*
X111700000Y-81860000D01*
X137790000Y-59750000D02*
X136460000Y-59750000D01*
X141660000Y-59750000D02*
X141660000Y-57090000D01*
X139060000Y-59750000D02*
X141660000Y-59750000D01*
X139060000Y-57090000D02*
X141660000Y-57090000D01*
X139060000Y-59750000D02*
X139060000Y-57090000D01*
X136460000Y-59750000D02*
X136460000Y-58420000D01*
%LPC*%
D14*
X130940000Y-73475000D03*
X130940000Y-78925000D03*
D15*
X133970000Y-78625000D03*
X133970000Y-73775000D03*
D16*
X130810000Y-85090000D03*
D17*
X130810000Y-85990000D03*
D16*
X133350000Y-85090000D03*
D17*
X133350000Y-85990000D03*
X135890000Y-85990000D03*
D18*
X135890000Y-85090000D03*
D16*
X138430000Y-85090000D03*
D17*
X138430000Y-85990000D03*
D16*
X140970000Y-85090000D03*
D17*
X140970000Y-85990000D03*
D16*
X143510000Y-85090000D03*
D17*
X143510000Y-85990000D03*
X146050000Y-85990000D03*
D16*
X146050000Y-85090000D03*
D18*
X148590000Y-85090000D03*
D17*
X148590000Y-85990000D03*
X151130000Y-85990000D03*
D16*
X151130000Y-85090000D03*
X153670000Y-85090000D03*
D17*
X153670000Y-85990000D03*
X156210000Y-85990000D03*
D16*
X156210000Y-85090000D03*
X158750000Y-85090000D03*
D17*
X158750000Y-85990000D03*
D18*
X161290000Y-85090000D03*
D17*
X161290000Y-85990000D03*
X163830000Y-85990000D03*
D16*
X163830000Y-85090000D03*
X166370000Y-85090000D03*
D17*
X166370000Y-85990000D03*
X168910000Y-85990000D03*
D16*
X168910000Y-85090000D03*
D17*
X171450000Y-85990000D03*
D16*
X171450000Y-85090000D03*
D17*
X173990000Y-85990000D03*
D18*
X173990000Y-85090000D03*
D16*
X176530000Y-85090000D03*
D17*
X176530000Y-85990000D03*
X179070000Y-85990000D03*
D16*
X179070000Y-85090000D03*
D17*
X179070000Y-66410000D03*
D16*
X179070000Y-67310000D03*
D17*
X176530000Y-66410000D03*
D16*
X176530000Y-67310000D03*
D17*
X173990000Y-66410000D03*
D18*
X173990000Y-67310000D03*
D16*
X171450000Y-67310000D03*
D17*
X171450000Y-66410000D03*
X168910000Y-66410000D03*
D16*
X168910000Y-67310000D03*
D17*
X166370000Y-66410000D03*
D16*
X166370000Y-67310000D03*
X163830000Y-67310000D03*
D17*
X163830000Y-66410000D03*
D18*
X161290000Y-67310000D03*
D17*
X161290000Y-66410000D03*
D16*
X158750000Y-67310000D03*
D17*
X158750000Y-66410000D03*
X156210000Y-66410000D03*
D16*
X156210000Y-67310000D03*
X153670000Y-67310000D03*
D17*
X153670000Y-66410000D03*
D16*
X151130000Y-67310000D03*
D17*
X151130000Y-66410000D03*
X148590000Y-66410000D03*
D18*
X148590000Y-67310000D03*
D17*
X146050000Y-66410000D03*
D16*
X146050000Y-67310000D03*
D17*
X143510000Y-66410000D03*
D16*
X143510000Y-67310000D03*
X140970000Y-67310000D03*
D17*
X140970000Y-66410000D03*
X138430000Y-66410000D03*
D16*
X138430000Y-67310000D03*
D17*
X135890000Y-66410000D03*
D18*
X135890000Y-67310000D03*
D17*
X133350000Y-66410000D03*
D16*
X133350000Y-67310000D03*
X130810000Y-67310000D03*
D17*
X130810000Y-66410000D03*
D19*
X179740000Y-78740000D03*
D16*
X178840000Y-78740000D03*
D18*
X178840000Y-76200000D03*
D19*
X179740000Y-76200000D03*
D16*
X178840000Y-73660000D03*
D19*
X179740000Y-73660000D03*
D20*
X161290000Y-111760000D03*
X163830000Y-111760000D03*
X166370000Y-111760000D03*
X168910000Y-111760000D03*
X171450000Y-111760000D03*
X173990000Y-111760000D03*
X176530000Y-111760000D03*
X179070000Y-111760000D03*
X179070000Y-96520000D03*
X176530000Y-96520000D03*
X173990000Y-96520000D03*
X171450000Y-96520000D03*
X168910000Y-96520000D03*
X166370000Y-96520000D03*
X163830000Y-96520000D03*
X161290000Y-96520000D03*
D21*
X115218708Y-112021232D03*
D22*
X117299354Y-113478116D03*
X119380000Y-114935000D03*
X121460647Y-116391884D03*
X123541293Y-117848769D03*
D18*
X182880000Y-55880000D03*
D16*
X185420000Y-55880000D03*
D18*
X182880000Y-121920000D03*
D16*
X180340000Y-121920000D03*
D23*
X121362676Y-61507853D03*
D24*
X119416923Y-63140534D03*
X117471170Y-64773214D03*
X115525417Y-66405895D03*
X113579664Y-68038575D03*
D18*
X156845000Y-109220000D03*
X113030000Y-83190000D03*
D16*
X113030000Y-85730000D03*
X113030000Y-88270000D03*
X113030000Y-90810000D03*
X113030000Y-93350000D03*
D18*
X137790000Y-58420000D03*
D16*
X140330000Y-58420000D03*
M02*
