%TF.GenerationSoftware,KiCad,Pcbnew,(6.0.9)*%
%TF.CreationDate,2022-12-06T16:34:43+05:30*%
%TF.ProjectId,micromouseus,6d696372-6f6d-46f7-9573-6575732e6b69,rev?*%
%TF.SameCoordinates,Original*%
%TF.FileFunction,Copper,L1,Top*%
%TF.FilePolarity,Positive*%
%FSLAX46Y46*%
G04 Gerber Fmt 4.6, Leading zero omitted, Abs format (unit mm)*
G04 Created by KiCad (PCBNEW (6.0.9)) date 2022-12-06 16:34:43*
%MOMM*%
%LPD*%
G01*
G04 APERTURE LIST*
%TA.AperFunction,ComponentPad*%
%ADD10C,1.980000*%
%TD*%
%TA.AperFunction,ComponentPad*%
%ADD11R,1.700000X1.700000*%
%TD*%
%TA.AperFunction,ComponentPad*%
%ADD12O,1.700000X1.700000*%
%TD*%
%TA.AperFunction,SMDPad,CuDef*%
%ADD13R,1.700000X3.500000*%
%TD*%
%TA.AperFunction,SMDPad,CuDef*%
%ADD14R,3.500000X1.700000*%
%TD*%
G04 APERTURE END LIST*
D10*
%TO.P,U1,1,VM*%
%TO.N,Net-(J5-Pad1)*%
X161290000Y-107950000D03*
%TO.P,U1,2,VCC*%
%TO.N,Net-(J1-Pad1)*%
X163830000Y-107950000D03*
%TO.P,U1,3,GND*%
%TO.N,Net-(J1-Pad4)*%
X166370000Y-107950000D03*
%TO.P,U1,4,A01*%
%TO.N,Net-(J6-Pad2)*%
X168910000Y-107950000D03*
%TO.P,U1,5,A02*%
%TO.N,Net-(J6-Pad1)*%
X171450000Y-107950000D03*
%TO.P,U1,6,B02*%
%TO.N,Net-(J7-Pad1)*%
X173990000Y-107950000D03*
%TO.P,U1,7,B01*%
%TO.N,Net-(J7-Pad2)*%
X176530000Y-107950000D03*
%TO.P,U1,8,GND*%
%TO.N,Net-(J1-Pad4)*%
X179070000Y-107950000D03*
%TO.P,U1,9,GND*%
X179070000Y-92710000D03*
%TO.P,U1,10,PWMB*%
%TO.N,Net-(U1-Pad10)*%
X176530000Y-92710000D03*
%TO.P,U1,11,BI2*%
%TO.N,Net-(U1-Pad11)*%
X173990000Y-92710000D03*
%TO.P,U1,12,BI1*%
%TO.N,Net-(U1-Pad12)*%
X171450000Y-92710000D03*
%TO.P,U1,13,STBY*%
%TO.N,Net-(J1-Pad1)*%
X168910000Y-92710000D03*
%TO.P,U1,14,AI1*%
%TO.N,Net-(U1-Pad14)*%
X166370000Y-92710000D03*
%TO.P,U1,15,AI2*%
%TO.N,Net-(U1-Pad15)*%
X163830000Y-92710000D03*
%TO.P,U1,16,PWMA*%
%TO.N,Net-(U1-Pad16)*%
X161290000Y-92710000D03*
%TD*%
%TA.AperFunction,ComponentPad*%
%TO.P,J3,1,Pin_1*%
%TO.N,Net-(J1-Pad1)*%
G36*
X123411433Y-123978515D02*
G01*
X122209351Y-122776433D01*
X123411433Y-121574351D01*
X124613515Y-122776433D01*
X123411433Y-123978515D01*
G37*
%TD.AperFunction*%
%TO.P,J3,2,Pin_2*%
%TO.N,Net-(J3-Pad2)*%
%TA.AperFunction,ComponentPad*%
G36*
G01*
X124606443Y-125173525D02*
X124606443Y-125173525D01*
G75*
G02*
X124606443Y-123971443I601041J601041D01*
G01*
X124606443Y-123971443D01*
G75*
G02*
X125808525Y-123971443I601041J-601041D01*
G01*
X125808525Y-123971443D01*
G75*
G02*
X125808525Y-125173525I-601041J-601041D01*
G01*
X125808525Y-125173525D01*
G75*
G02*
X124606443Y-125173525I-601041J601041D01*
G01*
G37*
%TD.AperFunction*%
%TO.P,J3,3,Pin_3*%
%TO.N,Net-(J3-Pad3)*%
%TA.AperFunction,ComponentPad*%
G36*
G01*
X126402494Y-126969576D02*
X126402494Y-126969576D01*
G75*
G02*
X126402494Y-125767494I601041J601041D01*
G01*
X126402494Y-125767494D01*
G75*
G02*
X127604576Y-125767494I601041J-601041D01*
G01*
X127604576Y-125767494D01*
G75*
G02*
X127604576Y-126969576I-601041J-601041D01*
G01*
X127604576Y-126969576D01*
G75*
G02*
X126402494Y-126969576I-601041J601041D01*
G01*
G37*
%TD.AperFunction*%
%TO.P,J3,4,Pin_4*%
%TO.N,Net-(J1-Pad4)*%
%TA.AperFunction,ComponentPad*%
G36*
G01*
X128198546Y-128765628D02*
X128198546Y-128765628D01*
G75*
G02*
X128198546Y-127563546I601041J601041D01*
G01*
X128198546Y-127563546D01*
G75*
G02*
X129400628Y-127563546I601041J-601041D01*
G01*
X129400628Y-127563546D01*
G75*
G02*
X129400628Y-128765628I-601041J-601041D01*
G01*
X129400628Y-128765628D01*
G75*
G02*
X128198546Y-128765628I-601041J601041D01*
G01*
G37*
%TD.AperFunction*%
%TO.P,J3,5,Pin_5*%
%TA.AperFunction,ComponentPad*%
G36*
G01*
X129994597Y-130561679D02*
X129994597Y-130561679D01*
G75*
G02*
X129994597Y-129359597I601041J601041D01*
G01*
X129994597Y-129359597D01*
G75*
G02*
X131196679Y-129359597I601041J-601041D01*
G01*
X131196679Y-129359597D01*
G75*
G02*
X131196679Y-130561679I-601041J-601041D01*
G01*
X131196679Y-130561679D01*
G75*
G02*
X129994597Y-130561679I-601041J601041D01*
G01*
G37*
%TD.AperFunction*%
%TD*%
D11*
%TO.P,J7,1,Pin_1*%
%TO.N,Net-(J7-Pad1)*%
X185420000Y-67310000D03*
D12*
%TO.P,J7,2,Pin_2*%
%TO.N,Net-(J7-Pad2)*%
X187960000Y-67310000D03*
%TD*%
D11*
%TO.P,J6,1,Pin_1*%
%TO.N,Net-(J6-Pad1)*%
X187325000Y-111125000D03*
D12*
%TO.P,J6,2,Pin_2*%
%TO.N,Net-(J6-Pad2)*%
X184785000Y-111125000D03*
%TD*%
%TO.P,U2,1,GPIO0*%
%TO.N,Net-(J2-Pad2)*%
X130810000Y-85725000D03*
D13*
X130810000Y-86625000D03*
%TO.P,U2,2,GPIO1*%
%TO.N,Net-(J2-Pad3)*%
X133350000Y-86625000D03*
D12*
X133350000Y-85725000D03*
D11*
%TO.P,U2,3,GND*%
%TO.N,Net-(U2-Pad3)*%
X135890000Y-85725000D03*
D13*
X135890000Y-86625000D03*
D12*
%TO.P,U2,4,GPIO2*%
%TO.N,unconnected-(U2-Pad4)*%
X138430000Y-85725000D03*
D13*
X138430000Y-86625000D03*
%TO.P,U2,5,GPIO3*%
%TO.N,Net-(J1-Pad3)*%
X140970000Y-86625000D03*
D12*
X140970000Y-85725000D03*
%TO.P,U2,6,GPIO4*%
%TO.N,Net-(J1-Pad2)*%
X143510000Y-85725000D03*
D13*
X143510000Y-86625000D03*
D12*
%TO.P,U2,7,GPIO5*%
%TO.N,unconnected-(U2-Pad7)*%
X146050000Y-85725000D03*
D13*
X146050000Y-86625000D03*
%TO.P,U2,8,GND*%
%TO.N,unconnected-(U2-Pad8)*%
X148590000Y-86625000D03*
D11*
X148590000Y-85725000D03*
D13*
%TO.P,U2,9,GPIO6*%
%TO.N,Net-(J3-Pad2)*%
X151130000Y-86625000D03*
D12*
X151130000Y-85725000D03*
%TO.P,U2,10,GPIO7*%
%TO.N,Net-(J3-Pad3)*%
X153670000Y-85725000D03*
D13*
X153670000Y-86625000D03*
D12*
%TO.P,U2,11,GPIO8*%
%TO.N,unconnected-(U2-Pad11)*%
X156210000Y-85725000D03*
D13*
X156210000Y-86625000D03*
D12*
%TO.P,U2,12,GPIO9*%
%TO.N,unconnected-(U2-Pad12)*%
X158750000Y-85725000D03*
D13*
X158750000Y-86625000D03*
D11*
%TO.P,U2,13,GND*%
%TO.N,unconnected-(U2-Pad13)*%
X161290000Y-85725000D03*
D13*
X161290000Y-86625000D03*
%TO.P,U2,14,GPIO10*%
%TO.N,Net-(U1-Pad16)*%
X163830000Y-86625000D03*
D12*
X163830000Y-85725000D03*
D13*
%TO.P,U2,15,GPIO11*%
%TO.N,Net-(U1-Pad15)*%
X166370000Y-86625000D03*
D12*
X166370000Y-85725000D03*
D13*
%TO.P,U2,16,GPIO12*%
%TO.N,Net-(U1-Pad14)*%
X168910000Y-86625000D03*
D12*
X168910000Y-85725000D03*
D13*
%TO.P,U2,17,GPIO13*%
%TO.N,Net-(U1-Pad12)*%
X171450000Y-86625000D03*
D12*
X171450000Y-85725000D03*
D13*
%TO.P,U2,18,GND*%
%TO.N,unconnected-(U2-Pad18)*%
X173990000Y-86625000D03*
D11*
X173990000Y-85725000D03*
D12*
%TO.P,U2,19,GPIO14*%
%TO.N,Net-(U1-Pad11)*%
X176530000Y-85725000D03*
D13*
X176530000Y-86625000D03*
%TO.P,U2,20,GPIO15*%
%TO.N,Net-(U1-Pad10)*%
X179070000Y-86625000D03*
D12*
X179070000Y-85725000D03*
D13*
%TO.P,U2,21,GPIO16*%
%TO.N,unconnected-(U2-Pad21)*%
X179070000Y-67045000D03*
D12*
X179070000Y-67945000D03*
%TO.P,U2,22,GPIO17*%
%TO.N,unconnected-(U2-Pad22)*%
X176530000Y-67945000D03*
D13*
X176530000Y-67045000D03*
%TO.P,U2,23,GND*%
%TO.N,unconnected-(U2-Pad23)*%
X173990000Y-67045000D03*
D11*
X173990000Y-67945000D03*
D12*
%TO.P,U2,24,GPIO18*%
%TO.N,unconnected-(U2-Pad24)*%
X171450000Y-67945000D03*
D13*
X171450000Y-67045000D03*
%TO.P,U2,25,GPIO19*%
%TO.N,unconnected-(U2-Pad25)*%
X168910000Y-67045000D03*
D12*
X168910000Y-67945000D03*
D13*
%TO.P,U2,26,GPIO20*%
%TO.N,unconnected-(U2-Pad26)*%
X166370000Y-67045000D03*
D12*
X166370000Y-67945000D03*
D13*
%TO.P,U2,27,GPIO21*%
%TO.N,unconnected-(U2-Pad27)*%
X163830000Y-67045000D03*
D12*
X163830000Y-67945000D03*
D11*
%TO.P,U2,28,GND*%
%TO.N,unconnected-(U2-Pad28)*%
X161290000Y-67945000D03*
D13*
X161290000Y-67045000D03*
D12*
%TO.P,U2,29,GPIO22*%
%TO.N,unconnected-(U2-Pad29)*%
X158750000Y-67945000D03*
D13*
X158750000Y-67045000D03*
%TO.P,U2,30,RUN*%
%TO.N,unconnected-(U2-Pad30)*%
X156210000Y-67045000D03*
D12*
X156210000Y-67945000D03*
%TO.P,U2,31,GPIO26_ADC0*%
%TO.N,unconnected-(U2-Pad31)*%
X153670000Y-67945000D03*
D13*
X153670000Y-67045000D03*
D12*
%TO.P,U2,32,GPIO27_ADC1*%
%TO.N,unconnected-(U2-Pad32)*%
X151130000Y-67945000D03*
D13*
X151130000Y-67045000D03*
D11*
%TO.P,U2,33,AGND*%
%TO.N,unconnected-(U2-Pad33)*%
X148590000Y-67945000D03*
D13*
X148590000Y-67045000D03*
D12*
%TO.P,U2,34,GPIO28_ADC2*%
%TO.N,unconnected-(U2-Pad34)*%
X146050000Y-67945000D03*
D13*
X146050000Y-67045000D03*
%TO.P,U2,35,ADC_VREF*%
%TO.N,unconnected-(U2-Pad35)*%
X143510000Y-67045000D03*
D12*
X143510000Y-67945000D03*
D13*
%TO.P,U2,36,3V3*%
%TO.N,unconnected-(U2-Pad36)*%
X140970000Y-67045000D03*
D12*
X140970000Y-67945000D03*
%TO.P,U2,37,3V3_EN*%
%TO.N,unconnected-(U2-Pad37)*%
X138430000Y-67945000D03*
D13*
X138430000Y-67045000D03*
D11*
%TO.P,U2,38,GND*%
%TO.N,Net-(J1-Pad4)*%
X135890000Y-67945000D03*
D13*
X135890000Y-67045000D03*
D12*
%TO.P,U2,39,VSYS*%
%TO.N,Net-(J1-Pad1)*%
X133350000Y-67945000D03*
D13*
X133350000Y-67045000D03*
D12*
%TO.P,U2,40,VBUS*%
%TO.N,unconnected-(U2-Pad40)*%
X130810000Y-67945000D03*
D13*
X130810000Y-67045000D03*
D14*
%TO.P,U2,41,SWCLK*%
%TO.N,unconnected-(U2-Pad41)*%
X179740000Y-79375000D03*
D12*
X178840000Y-79375000D03*
D14*
%TO.P,U2,42,GND*%
%TO.N,unconnected-(U2-Pad42)*%
X179740000Y-76835000D03*
D11*
X178840000Y-76835000D03*
D14*
%TO.P,U2,43,SWDIO*%
%TO.N,unconnected-(U2-Pad43)*%
X179740000Y-74295000D03*
D12*
X178840000Y-74295000D03*
%TD*%
%TA.AperFunction,ComponentPad*%
%TO.P,J1,1,Pin_1*%
%TO.N,Net-(J1-Pad1)*%
G36*
X129607918Y-49530000D02*
G01*
X130810000Y-48327918D01*
X132012082Y-49530000D01*
X130810000Y-50732082D01*
X129607918Y-49530000D01*
G37*
%TD.AperFunction*%
%TO.P,J1,2,Pin_2*%
%TO.N,Net-(J1-Pad2)*%
%TA.AperFunction,ComponentPad*%
G36*
G01*
X128412908Y-50725010D02*
X128412908Y-50725010D01*
G75*
G02*
X129614990Y-50725010I601041J-601041D01*
G01*
X129614990Y-50725010D01*
G75*
G02*
X129614990Y-51927092I-601041J-601041D01*
G01*
X129614990Y-51927092D01*
G75*
G02*
X128412908Y-51927092I-601041J601041D01*
G01*
X128412908Y-51927092D01*
G75*
G02*
X128412908Y-50725010I601041J601041D01*
G01*
G37*
%TD.AperFunction*%
%TO.P,J1,3,Pin_3*%
%TO.N,Net-(J1-Pad3)*%
%TA.AperFunction,ComponentPad*%
G36*
G01*
X126616857Y-52521061D02*
X126616857Y-52521061D01*
G75*
G02*
X127818939Y-52521061I601041J-601041D01*
G01*
X127818939Y-52521061D01*
G75*
G02*
X127818939Y-53723143I-601041J-601041D01*
G01*
X127818939Y-53723143D01*
G75*
G02*
X126616857Y-53723143I-601041J601041D01*
G01*
X126616857Y-53723143D01*
G75*
G02*
X126616857Y-52521061I601041J601041D01*
G01*
G37*
%TD.AperFunction*%
%TO.P,J1,4,Pin_4*%
%TO.N,Net-(J1-Pad4)*%
%TA.AperFunction,ComponentPad*%
G36*
G01*
X124820805Y-54317113D02*
X124820805Y-54317113D01*
G75*
G02*
X126022887Y-54317113I601041J-601041D01*
G01*
X126022887Y-54317113D01*
G75*
G02*
X126022887Y-55519195I-601041J-601041D01*
G01*
X126022887Y-55519195D01*
G75*
G02*
X124820805Y-55519195I-601041J601041D01*
G01*
X124820805Y-55519195D01*
G75*
G02*
X124820805Y-54317113I601041J601041D01*
G01*
G37*
%TD.AperFunction*%
%TO.P,J1,5,Pin_5*%
%TA.AperFunction,ComponentPad*%
G36*
G01*
X123024754Y-56113164D02*
X123024754Y-56113164D01*
G75*
G02*
X124226836Y-56113164I601041J-601041D01*
G01*
X124226836Y-56113164D01*
G75*
G02*
X124226836Y-57315246I-601041J-601041D01*
G01*
X124226836Y-57315246D01*
G75*
G02*
X123024754Y-57315246I-601041J601041D01*
G01*
X123024754Y-57315246D01*
G75*
G02*
X123024754Y-56113164I601041J601041D01*
G01*
G37*
%TD.AperFunction*%
%TD*%
D11*
%TO.P,J5,1,Pin_1*%
%TO.N,Net-(J5-Pad1)*%
X154940000Y-107950000D03*
%TD*%
%TO.P,J2,1,Pin_1*%
%TO.N,Net-(J1-Pad1)*%
X113030000Y-83190000D03*
D12*
%TO.P,J2,2,Pin_2*%
%TO.N,Net-(J2-Pad2)*%
X113030000Y-85730000D03*
%TO.P,J2,3,Pin_3*%
%TO.N,Net-(J2-Pad3)*%
X113030000Y-88270000D03*
%TO.P,J2,4,Pin_4*%
%TO.N,Net-(U2-Pad3)*%
X113030000Y-90810000D03*
%TO.P,J2,5,Pin_5*%
X113030000Y-93350000D03*
%TD*%
D11*
%TO.P,J4,1,Pin_1*%
%TO.N,Net-(J1-Pad1)*%
X137790000Y-58420000D03*
D12*
%TO.P,J4,2,Pin_2*%
%TO.N,Net-(J1-Pad4)*%
X140330000Y-58420000D03*
%TD*%
M02*
