%TF.GenerationSoftware,KiCad,Pcbnew,(6.0.9)*%
%TF.CreationDate,2022-12-06T16:34:43+05:30*%
%TF.ProjectId,micromouseus,6d696372-6f6d-46f7-9573-6575732e6b69,rev?*%
%TF.SameCoordinates,Original*%
%TF.FileFunction,Soldermask,Top*%
%TF.FilePolarity,Negative*%
%FSLAX46Y46*%
G04 Gerber Fmt 4.6, Leading zero omitted, Abs format (unit mm)*
G04 Created by KiCad (PCBNEW (6.0.9)) date 2022-12-06 16:34:43*
%MOMM*%
%LPD*%
G01*
G04 APERTURE LIST*
%ADD10C,1.980000*%
%ADD11R,1.700000X1.700000*%
%ADD12O,1.700000X1.700000*%
%ADD13O,1.800000X1.800000*%
%ADD14O,1.500000X1.500000*%
%ADD15R,1.700000X3.500000*%
%ADD16R,3.500000X1.700000*%
G04 APERTURE END LIST*
D10*
%TO.C,U1*%
X161290000Y-107950000D03*
X163830000Y-107950000D03*
X166370000Y-107950000D03*
X168910000Y-107950000D03*
X171450000Y-107950000D03*
X173990000Y-107950000D03*
X176530000Y-107950000D03*
X179070000Y-107950000D03*
X179070000Y-92710000D03*
X176530000Y-92710000D03*
X173990000Y-92710000D03*
X171450000Y-92710000D03*
X168910000Y-92710000D03*
X166370000Y-92710000D03*
X163830000Y-92710000D03*
X161290000Y-92710000D03*
%TD*%
%TO.C,J3*%
G36*
X123411433Y-123978515D02*
G01*
X122209351Y-122776433D01*
X123411433Y-121574351D01*
X124613515Y-122776433D01*
X123411433Y-123978515D01*
G37*
G36*
G01*
X124606443Y-125173525D02*
X124606443Y-125173525D01*
G75*
G02*
X124606443Y-123971443I601041J601041D01*
G01*
X124606443Y-123971443D01*
G75*
G02*
X125808525Y-123971443I601041J-601041D01*
G01*
X125808525Y-123971443D01*
G75*
G02*
X125808525Y-125173525I-601041J-601041D01*
G01*
X125808525Y-125173525D01*
G75*
G02*
X124606443Y-125173525I-601041J601041D01*
G01*
G37*
G36*
G01*
X126402494Y-126969576D02*
X126402494Y-126969576D01*
G75*
G02*
X126402494Y-125767494I601041J601041D01*
G01*
X126402494Y-125767494D01*
G75*
G02*
X127604576Y-125767494I601041J-601041D01*
G01*
X127604576Y-125767494D01*
G75*
G02*
X127604576Y-126969576I-601041J-601041D01*
G01*
X127604576Y-126969576D01*
G75*
G02*
X126402494Y-126969576I-601041J601041D01*
G01*
G37*
G36*
G01*
X128198546Y-128765628D02*
X128198546Y-128765628D01*
G75*
G02*
X128198546Y-127563546I601041J601041D01*
G01*
X128198546Y-127563546D01*
G75*
G02*
X129400628Y-127563546I601041J-601041D01*
G01*
X129400628Y-127563546D01*
G75*
G02*
X129400628Y-128765628I-601041J-601041D01*
G01*
X129400628Y-128765628D01*
G75*
G02*
X128198546Y-128765628I-601041J601041D01*
G01*
G37*
G36*
G01*
X129994597Y-130561679D02*
X129994597Y-130561679D01*
G75*
G02*
X129994597Y-129359597I601041J601041D01*
G01*
X129994597Y-129359597D01*
G75*
G02*
X131196679Y-129359597I601041J-601041D01*
G01*
X131196679Y-129359597D01*
G75*
G02*
X131196679Y-130561679I-601041J-601041D01*
G01*
X131196679Y-130561679D01*
G75*
G02*
X129994597Y-130561679I-601041J601041D01*
G01*
G37*
%TD*%
D11*
%TO.C,J7*%
X185420000Y-67310000D03*
D12*
X187960000Y-67310000D03*
%TD*%
D11*
%TO.C,J6*%
X187325000Y-111125000D03*
D12*
X184785000Y-111125000D03*
%TD*%
D13*
%TO.C,U2*%
X130940000Y-79560000D03*
D14*
X133970000Y-74410000D03*
X133970000Y-79260000D03*
D13*
X130940000Y-74110000D03*
D12*
X130810000Y-85725000D03*
D15*
X130810000Y-86625000D03*
X133350000Y-86625000D03*
D12*
X133350000Y-85725000D03*
D11*
X135890000Y-85725000D03*
D15*
X135890000Y-86625000D03*
D12*
X138430000Y-85725000D03*
D15*
X138430000Y-86625000D03*
X140970000Y-86625000D03*
D12*
X140970000Y-85725000D03*
X143510000Y-85725000D03*
D15*
X143510000Y-86625000D03*
D12*
X146050000Y-85725000D03*
D15*
X146050000Y-86625000D03*
X148590000Y-86625000D03*
D11*
X148590000Y-85725000D03*
D15*
X151130000Y-86625000D03*
D12*
X151130000Y-85725000D03*
X153670000Y-85725000D03*
D15*
X153670000Y-86625000D03*
D12*
X156210000Y-85725000D03*
D15*
X156210000Y-86625000D03*
D12*
X158750000Y-85725000D03*
D15*
X158750000Y-86625000D03*
D11*
X161290000Y-85725000D03*
D15*
X161290000Y-86625000D03*
X163830000Y-86625000D03*
D12*
X163830000Y-85725000D03*
D15*
X166370000Y-86625000D03*
D12*
X166370000Y-85725000D03*
D15*
X168910000Y-86625000D03*
D12*
X168910000Y-85725000D03*
D15*
X171450000Y-86625000D03*
D12*
X171450000Y-85725000D03*
D15*
X173990000Y-86625000D03*
D11*
X173990000Y-85725000D03*
D12*
X176530000Y-85725000D03*
D15*
X176530000Y-86625000D03*
X179070000Y-86625000D03*
D12*
X179070000Y-85725000D03*
D15*
X179070000Y-67045000D03*
D12*
X179070000Y-67945000D03*
X176530000Y-67945000D03*
D15*
X176530000Y-67045000D03*
X173990000Y-67045000D03*
D11*
X173990000Y-67945000D03*
D12*
X171450000Y-67945000D03*
D15*
X171450000Y-67045000D03*
X168910000Y-67045000D03*
D12*
X168910000Y-67945000D03*
D15*
X166370000Y-67045000D03*
D12*
X166370000Y-67945000D03*
D15*
X163830000Y-67045000D03*
D12*
X163830000Y-67945000D03*
D11*
X161290000Y-67945000D03*
D15*
X161290000Y-67045000D03*
D12*
X158750000Y-67945000D03*
D15*
X158750000Y-67045000D03*
X156210000Y-67045000D03*
D12*
X156210000Y-67945000D03*
X153670000Y-67945000D03*
D15*
X153670000Y-67045000D03*
D12*
X151130000Y-67945000D03*
D15*
X151130000Y-67045000D03*
D11*
X148590000Y-67945000D03*
D15*
X148590000Y-67045000D03*
D12*
X146050000Y-67945000D03*
D15*
X146050000Y-67045000D03*
X143510000Y-67045000D03*
D12*
X143510000Y-67945000D03*
D15*
X140970000Y-67045000D03*
D12*
X140970000Y-67945000D03*
X138430000Y-67945000D03*
D15*
X138430000Y-67045000D03*
D11*
X135890000Y-67945000D03*
D15*
X135890000Y-67045000D03*
D12*
X133350000Y-67945000D03*
D15*
X133350000Y-67045000D03*
D12*
X130810000Y-67945000D03*
D15*
X130810000Y-67045000D03*
D16*
X179740000Y-79375000D03*
D12*
X178840000Y-79375000D03*
D16*
X179740000Y-76835000D03*
D11*
X178840000Y-76835000D03*
D16*
X179740000Y-74295000D03*
D12*
X178840000Y-74295000D03*
%TD*%
%TO.C,J1*%
G36*
X129607918Y-49530000D02*
G01*
X130810000Y-48327918D01*
X132012082Y-49530000D01*
X130810000Y-50732082D01*
X129607918Y-49530000D01*
G37*
G36*
G01*
X128412908Y-50725010D02*
X128412908Y-50725010D01*
G75*
G02*
X129614990Y-50725010I601041J-601041D01*
G01*
X129614990Y-50725010D01*
G75*
G02*
X129614990Y-51927092I-601041J-601041D01*
G01*
X129614990Y-51927092D01*
G75*
G02*
X128412908Y-51927092I-601041J601041D01*
G01*
X128412908Y-51927092D01*
G75*
G02*
X128412908Y-50725010I601041J601041D01*
G01*
G37*
G36*
G01*
X126616857Y-52521061D02*
X126616857Y-52521061D01*
G75*
G02*
X127818939Y-52521061I601041J-601041D01*
G01*
X127818939Y-52521061D01*
G75*
G02*
X127818939Y-53723143I-601041J-601041D01*
G01*
X127818939Y-53723143D01*
G75*
G02*
X126616857Y-53723143I-601041J601041D01*
G01*
X126616857Y-53723143D01*
G75*
G02*
X126616857Y-52521061I601041J601041D01*
G01*
G37*
G36*
G01*
X124820805Y-54317113D02*
X124820805Y-54317113D01*
G75*
G02*
X126022887Y-54317113I601041J-601041D01*
G01*
X126022887Y-54317113D01*
G75*
G02*
X126022887Y-55519195I-601041J-601041D01*
G01*
X126022887Y-55519195D01*
G75*
G02*
X124820805Y-55519195I-601041J601041D01*
G01*
X124820805Y-55519195D01*
G75*
G02*
X124820805Y-54317113I601041J601041D01*
G01*
G37*
G36*
G01*
X123024754Y-56113164D02*
X123024754Y-56113164D01*
G75*
G02*
X124226836Y-56113164I601041J-601041D01*
G01*
X124226836Y-56113164D01*
G75*
G02*
X124226836Y-57315246I-601041J-601041D01*
G01*
X124226836Y-57315246D01*
G75*
G02*
X123024754Y-57315246I-601041J601041D01*
G01*
X123024754Y-57315246D01*
G75*
G02*
X123024754Y-56113164I601041J601041D01*
G01*
G37*
%TD*%
D11*
%TO.C,J5*%
X154940000Y-107950000D03*
%TD*%
%TO.C,J2*%
X113030000Y-83190000D03*
D12*
X113030000Y-85730000D03*
X113030000Y-88270000D03*
X113030000Y-90810000D03*
X113030000Y-93350000D03*
%TD*%
D11*
%TO.C,J4*%
X137790000Y-58420000D03*
D12*
X140330000Y-58420000D03*
%TD*%
M02*
