%TF.GenerationSoftware,KiCad,Pcbnew,(6.0.9)*%
%TF.CreationDate,2022-12-06T10:38:09+05:30*%
%TF.ProjectId,micromouseus,6d696372-6f6d-46f7-9573-6575732e6b69,rev?*%
%TF.SameCoordinates,Original*%
%TF.FileFunction,Drillmap*%
%TF.FilePolarity,Positive*%
%FSLAX45Y45*%
G04 Gerber Fmt 4.5, Leading zero omitted, Abs format (unit mm)*
G04 Created by KiCad (PCBNEW (6.0.9)) date 2022-12-06 10:38:09*
%MOMM*%
%LPD*%
G01*
G04 APERTURE LIST*
%ADD10C,0.100000*%
%ADD11C,0.200000*%
%ADD12C,0.150000*%
%ADD13C,0.180000*%
G04 APERTURE END LIST*
D10*
X18097500Y-12827000D02*
G75*
G03*
X18034000Y-5016500I-2994616J3881162D01*
G01*
X13462000Y-13398500D02*
X13462000Y-12827000D01*
X18097500Y-12827000D02*
X13462000Y-12827000D01*
X13462000Y-5016500D02*
X18034000Y-5016500D01*
X13462000Y-4445000D02*
X13462000Y-5016500D01*
X13462000Y-4445000D02*
G75*
G03*
X13208000Y-13398500I1096018J-4511446D01*
G01*
X13208000Y-13398500D02*
X13462000Y-13398500D01*
D11*
D12*
X13322000Y-7302500D02*
X13472000Y-7452500D01*
X13472000Y-7302500D02*
X13322000Y-7452500D01*
X13322000Y-7787500D02*
X13472000Y-7937500D01*
X13472000Y-7787500D02*
X13322000Y-7937500D01*
D13*
X13184000Y-7347500D02*
G75*
G03*
X13184000Y-7347500I-90000J0D01*
G01*
X13184000Y-7892500D02*
G75*
G03*
X13184000Y-7892500I-90000J0D01*
G01*
D11*
X10167966Y-13713976D02*
X10167966Y-13513976D01*
X10215585Y-13513976D01*
X10244156Y-13523500D01*
X10263204Y-13542548D01*
X10272728Y-13561595D01*
X10282251Y-13599690D01*
X10282251Y-13628262D01*
X10272728Y-13666357D01*
X10263204Y-13685405D01*
X10244156Y-13704452D01*
X10215585Y-13713976D01*
X10167966Y-13713976D01*
X10367966Y-13713976D02*
X10367966Y-13580643D01*
X10367966Y-13618738D02*
X10377489Y-13599690D01*
X10387013Y-13590167D01*
X10406061Y-13580643D01*
X10425109Y-13580643D01*
X10491775Y-13713976D02*
X10491775Y-13580643D01*
X10491775Y-13513976D02*
X10482251Y-13523500D01*
X10491775Y-13533024D01*
X10501299Y-13523500D01*
X10491775Y-13513976D01*
X10491775Y-13533024D01*
X10615585Y-13713976D02*
X10596537Y-13704452D01*
X10587013Y-13685405D01*
X10587013Y-13513976D01*
X10720347Y-13713976D02*
X10701299Y-13704452D01*
X10691775Y-13685405D01*
X10691775Y-13513976D01*
X10948918Y-13713976D02*
X10948918Y-13513976D01*
X11015585Y-13656833D01*
X11082251Y-13513976D01*
X11082251Y-13713976D01*
X11263204Y-13713976D02*
X11263204Y-13609214D01*
X11253680Y-13590167D01*
X11234632Y-13580643D01*
X11196537Y-13580643D01*
X11177489Y-13590167D01*
X11263204Y-13704452D02*
X11244156Y-13713976D01*
X11196537Y-13713976D01*
X11177489Y-13704452D01*
X11167966Y-13685405D01*
X11167966Y-13666357D01*
X11177489Y-13647309D01*
X11196537Y-13637786D01*
X11244156Y-13637786D01*
X11263204Y-13628262D01*
X11358442Y-13580643D02*
X11358442Y-13780643D01*
X11358442Y-13590167D02*
X11377489Y-13580643D01*
X11415585Y-13580643D01*
X11434632Y-13590167D01*
X11444156Y-13599690D01*
X11453680Y-13618738D01*
X11453680Y-13675881D01*
X11444156Y-13694928D01*
X11434632Y-13704452D01*
X11415585Y-13713976D01*
X11377489Y-13713976D01*
X11358442Y-13704452D01*
X11539394Y-13694928D02*
X11548918Y-13704452D01*
X11539394Y-13713976D01*
X11529870Y-13704452D01*
X11539394Y-13694928D01*
X11539394Y-13713976D01*
X11539394Y-13590167D02*
X11548918Y-13599690D01*
X11539394Y-13609214D01*
X11529870Y-13599690D01*
X11539394Y-13590167D01*
X11539394Y-13609214D01*
D12*
X9760347Y-13968500D02*
X9910347Y-14118500D01*
X9910347Y-13968500D02*
X9760347Y-14118500D01*
D11*
X10272728Y-14133976D02*
X10158442Y-14133976D01*
X10215585Y-14133976D02*
X10215585Y-13933976D01*
X10196537Y-13962548D01*
X10177489Y-13981595D01*
X10158442Y-13991119D01*
X10358442Y-14114928D02*
X10367966Y-14124452D01*
X10358442Y-14133976D01*
X10348918Y-14124452D01*
X10358442Y-14114928D01*
X10358442Y-14133976D01*
X10548918Y-13933976D02*
X10453680Y-13933976D01*
X10444156Y-14029214D01*
X10453680Y-14019690D01*
X10472728Y-14010167D01*
X10520347Y-14010167D01*
X10539394Y-14019690D01*
X10548918Y-14029214D01*
X10558442Y-14048262D01*
X10558442Y-14095881D01*
X10548918Y-14114928D01*
X10539394Y-14124452D01*
X10520347Y-14133976D01*
X10472728Y-14133976D01*
X10453680Y-14124452D01*
X10444156Y-14114928D01*
X10682251Y-13933976D02*
X10701299Y-13933976D01*
X10720347Y-13943500D01*
X10729870Y-13953024D01*
X10739394Y-13972071D01*
X10748918Y-14010167D01*
X10748918Y-14057786D01*
X10739394Y-14095881D01*
X10729870Y-14114928D01*
X10720347Y-14124452D01*
X10701299Y-14133976D01*
X10682251Y-14133976D01*
X10663204Y-14124452D01*
X10653680Y-14114928D01*
X10644156Y-14095881D01*
X10634632Y-14057786D01*
X10634632Y-14010167D01*
X10644156Y-13972071D01*
X10653680Y-13953024D01*
X10663204Y-13943500D01*
X10682251Y-13933976D01*
X10872728Y-13933976D02*
X10891775Y-13933976D01*
X10910823Y-13943500D01*
X10920347Y-13953024D01*
X10929870Y-13972071D01*
X10939394Y-14010167D01*
X10939394Y-14057786D01*
X10929870Y-14095881D01*
X10920347Y-14114928D01*
X10910823Y-14124452D01*
X10891775Y-14133976D01*
X10872728Y-14133976D01*
X10853680Y-14124452D01*
X10844156Y-14114928D01*
X10834632Y-14095881D01*
X10825109Y-14057786D01*
X10825109Y-14010167D01*
X10834632Y-13972071D01*
X10844156Y-13953024D01*
X10853680Y-13943500D01*
X10872728Y-13933976D01*
X11025109Y-14133976D02*
X11025109Y-14000643D01*
X11025109Y-14019690D02*
X11034632Y-14010167D01*
X11053680Y-14000643D01*
X11082251Y-14000643D01*
X11101299Y-14010167D01*
X11110823Y-14029214D01*
X11110823Y-14133976D01*
X11110823Y-14029214D02*
X11120347Y-14010167D01*
X11139394Y-14000643D01*
X11167966Y-14000643D01*
X11187013Y-14010167D01*
X11196537Y-14029214D01*
X11196537Y-14133976D01*
X11291775Y-14133976D02*
X11291775Y-14000643D01*
X11291775Y-14019690D02*
X11301299Y-14010167D01*
X11320347Y-14000643D01*
X11348918Y-14000643D01*
X11367966Y-14010167D01*
X11377489Y-14029214D01*
X11377489Y-14133976D01*
X11377489Y-14029214D02*
X11387013Y-14010167D01*
X11406061Y-14000643D01*
X11434632Y-14000643D01*
X11453680Y-14010167D01*
X11463204Y-14029214D01*
X11463204Y-14133976D01*
X11853680Y-13924452D02*
X11682251Y-14181595D01*
X12110823Y-13933976D02*
X12129870Y-13933976D01*
X12148918Y-13943500D01*
X12158442Y-13953024D01*
X12167966Y-13972071D01*
X12177489Y-14010167D01*
X12177489Y-14057786D01*
X12167966Y-14095881D01*
X12158442Y-14114928D01*
X12148918Y-14124452D01*
X12129870Y-14133976D01*
X12110823Y-14133976D01*
X12091775Y-14124452D01*
X12082251Y-14114928D01*
X12072727Y-14095881D01*
X12063204Y-14057786D01*
X12063204Y-14010167D01*
X12072727Y-13972071D01*
X12082251Y-13953024D01*
X12091775Y-13943500D01*
X12110823Y-13933976D01*
X12263204Y-14114928D02*
X12272727Y-14124452D01*
X12263204Y-14133976D01*
X12253680Y-14124452D01*
X12263204Y-14114928D01*
X12263204Y-14133976D01*
X12396537Y-13933976D02*
X12415585Y-13933976D01*
X12434632Y-13943500D01*
X12444156Y-13953024D01*
X12453680Y-13972071D01*
X12463204Y-14010167D01*
X12463204Y-14057786D01*
X12453680Y-14095881D01*
X12444156Y-14114928D01*
X12434632Y-14124452D01*
X12415585Y-14133976D01*
X12396537Y-14133976D01*
X12377489Y-14124452D01*
X12367966Y-14114928D01*
X12358442Y-14095881D01*
X12348918Y-14057786D01*
X12348918Y-14010167D01*
X12358442Y-13972071D01*
X12367966Y-13953024D01*
X12377489Y-13943500D01*
X12396537Y-13933976D01*
X12644156Y-13933976D02*
X12548918Y-13933976D01*
X12539394Y-14029214D01*
X12548918Y-14019690D01*
X12567966Y-14010167D01*
X12615585Y-14010167D01*
X12634632Y-14019690D01*
X12644156Y-14029214D01*
X12653680Y-14048262D01*
X12653680Y-14095881D01*
X12644156Y-14114928D01*
X12634632Y-14124452D01*
X12615585Y-14133976D01*
X12567966Y-14133976D01*
X12548918Y-14124452D01*
X12539394Y-14114928D01*
X12748918Y-14133976D02*
X12787013Y-14133976D01*
X12806061Y-14124452D01*
X12815585Y-14114928D01*
X12834632Y-14086357D01*
X12844156Y-14048262D01*
X12844156Y-13972071D01*
X12834632Y-13953024D01*
X12825108Y-13943500D01*
X12806061Y-13933976D01*
X12767966Y-13933976D01*
X12748918Y-13943500D01*
X12739394Y-13953024D01*
X12729870Y-13972071D01*
X12729870Y-14019690D01*
X12739394Y-14038738D01*
X12748918Y-14048262D01*
X12767966Y-14057786D01*
X12806061Y-14057786D01*
X12825108Y-14048262D01*
X12834632Y-14038738D01*
X12844156Y-14019690D01*
X13034632Y-14133976D02*
X12920346Y-14133976D01*
X12977489Y-14133976D02*
X12977489Y-13933976D01*
X12958442Y-13962548D01*
X12939394Y-13981595D01*
X12920346Y-13991119D01*
X13110823Y-13933976D02*
X13110823Y-13972071D01*
X13187013Y-13933976D02*
X13187013Y-13972071D01*
X13482251Y-14210167D02*
X13472727Y-14200643D01*
X13453680Y-14172071D01*
X13444156Y-14153024D01*
X13434632Y-14124452D01*
X13425108Y-14076833D01*
X13425108Y-14038738D01*
X13434632Y-13991119D01*
X13444156Y-13962548D01*
X13453680Y-13943500D01*
X13472727Y-13914928D01*
X13482251Y-13905405D01*
X13548918Y-13953024D02*
X13558442Y-13943500D01*
X13577489Y-13933976D01*
X13625108Y-13933976D01*
X13644156Y-13943500D01*
X13653680Y-13953024D01*
X13663204Y-13972071D01*
X13663204Y-13991119D01*
X13653680Y-14019690D01*
X13539394Y-14133976D01*
X13663204Y-14133976D01*
X13901299Y-14133976D02*
X13901299Y-13933976D01*
X13987013Y-14133976D02*
X13987013Y-14029214D01*
X13977489Y-14010167D01*
X13958442Y-14000643D01*
X13929870Y-14000643D01*
X13910823Y-14010167D01*
X13901299Y-14019690D01*
X14110823Y-14133976D02*
X14091775Y-14124452D01*
X14082251Y-14114928D01*
X14072727Y-14095881D01*
X14072727Y-14038738D01*
X14082251Y-14019690D01*
X14091775Y-14010167D01*
X14110823Y-14000643D01*
X14139394Y-14000643D01*
X14158442Y-14010167D01*
X14167966Y-14019690D01*
X14177489Y-14038738D01*
X14177489Y-14095881D01*
X14167966Y-14114928D01*
X14158442Y-14124452D01*
X14139394Y-14133976D01*
X14110823Y-14133976D01*
X14291775Y-14133976D02*
X14272727Y-14124452D01*
X14263204Y-14105405D01*
X14263204Y-13933976D01*
X14444156Y-14124452D02*
X14425108Y-14133976D01*
X14387013Y-14133976D01*
X14367966Y-14124452D01*
X14358442Y-14105405D01*
X14358442Y-14029214D01*
X14367966Y-14010167D01*
X14387013Y-14000643D01*
X14425108Y-14000643D01*
X14444156Y-14010167D01*
X14453680Y-14029214D01*
X14453680Y-14048262D01*
X14358442Y-14067309D01*
X14529870Y-14124452D02*
X14548918Y-14133976D01*
X14587013Y-14133976D01*
X14606061Y-14124452D01*
X14615585Y-14105405D01*
X14615585Y-14095881D01*
X14606061Y-14076833D01*
X14587013Y-14067309D01*
X14558442Y-14067309D01*
X14539394Y-14057786D01*
X14529870Y-14038738D01*
X14529870Y-14029214D01*
X14539394Y-14010167D01*
X14558442Y-14000643D01*
X14587013Y-14000643D01*
X14606061Y-14010167D01*
X14682251Y-14210167D02*
X14691775Y-14200643D01*
X14710823Y-14172071D01*
X14720346Y-14153024D01*
X14729870Y-14124452D01*
X14739394Y-14076833D01*
X14739394Y-14038738D01*
X14729870Y-13991119D01*
X14720346Y-13962548D01*
X14710823Y-13943500D01*
X14691775Y-13914928D01*
X14682251Y-13905405D01*
X15044156Y-14210167D02*
X15034632Y-14200643D01*
X15015585Y-14172071D01*
X15006061Y-14153024D01*
X14996537Y-14124452D01*
X14987013Y-14076833D01*
X14987013Y-14038738D01*
X14996537Y-13991119D01*
X15006061Y-13962548D01*
X15015585Y-13943500D01*
X15034632Y-13914928D01*
X15044156Y-13905405D01*
X15120346Y-14000643D02*
X15120346Y-14133976D01*
X15120346Y-14019690D02*
X15129870Y-14010167D01*
X15148918Y-14000643D01*
X15177489Y-14000643D01*
X15196537Y-14010167D01*
X15206061Y-14029214D01*
X15206061Y-14133976D01*
X15329870Y-14133976D02*
X15310823Y-14124452D01*
X15301299Y-14114928D01*
X15291775Y-14095881D01*
X15291775Y-14038738D01*
X15301299Y-14019690D01*
X15310823Y-14010167D01*
X15329870Y-14000643D01*
X15358442Y-14000643D01*
X15377489Y-14010167D01*
X15387013Y-14019690D01*
X15396537Y-14038738D01*
X15396537Y-14095881D01*
X15387013Y-14114928D01*
X15377489Y-14124452D01*
X15358442Y-14133976D01*
X15329870Y-14133976D01*
X15453680Y-14000643D02*
X15529870Y-14000643D01*
X15482251Y-13933976D02*
X15482251Y-14105405D01*
X15491775Y-14124452D01*
X15510823Y-14133976D01*
X15529870Y-14133976D01*
X15748918Y-14000643D02*
X15748918Y-14200643D01*
X15748918Y-14010167D02*
X15767966Y-14000643D01*
X15806061Y-14000643D01*
X15825108Y-14010167D01*
X15834632Y-14019690D01*
X15844156Y-14038738D01*
X15844156Y-14095881D01*
X15834632Y-14114928D01*
X15825108Y-14124452D01*
X15806061Y-14133976D01*
X15767966Y-14133976D01*
X15748918Y-14124452D01*
X15958442Y-14133976D02*
X15939394Y-14124452D01*
X15929870Y-14105405D01*
X15929870Y-13933976D01*
X16120346Y-14133976D02*
X16120346Y-14029214D01*
X16110823Y-14010167D01*
X16091775Y-14000643D01*
X16053680Y-14000643D01*
X16034632Y-14010167D01*
X16120346Y-14124452D02*
X16101299Y-14133976D01*
X16053680Y-14133976D01*
X16034632Y-14124452D01*
X16025108Y-14105405D01*
X16025108Y-14086357D01*
X16034632Y-14067309D01*
X16053680Y-14057786D01*
X16101299Y-14057786D01*
X16120346Y-14048262D01*
X16187013Y-14000643D02*
X16263204Y-14000643D01*
X16215585Y-13933976D02*
X16215585Y-14105405D01*
X16225108Y-14124452D01*
X16244156Y-14133976D01*
X16263204Y-14133976D01*
X16406061Y-14124452D02*
X16387013Y-14133976D01*
X16348918Y-14133976D01*
X16329870Y-14124452D01*
X16320346Y-14105405D01*
X16320346Y-14029214D01*
X16329870Y-14010167D01*
X16348918Y-14000643D01*
X16387013Y-14000643D01*
X16406061Y-14010167D01*
X16415585Y-14029214D01*
X16415585Y-14048262D01*
X16320346Y-14067309D01*
X16587013Y-14133976D02*
X16587013Y-13933976D01*
X16587013Y-14124452D02*
X16567966Y-14133976D01*
X16529870Y-14133976D01*
X16510823Y-14124452D01*
X16501299Y-14114928D01*
X16491775Y-14095881D01*
X16491775Y-14038738D01*
X16501299Y-14019690D01*
X16510823Y-14010167D01*
X16529870Y-14000643D01*
X16567966Y-14000643D01*
X16587013Y-14010167D01*
X16663204Y-14210167D02*
X16672727Y-14200643D01*
X16691775Y-14172071D01*
X16701299Y-14153024D01*
X16710823Y-14124452D01*
X16720346Y-14076833D01*
X16720346Y-14038738D01*
X16710823Y-13991119D01*
X16701299Y-13962548D01*
X16691775Y-13943500D01*
X16672727Y-13914928D01*
X16663204Y-13905405D01*
D13*
X9910347Y-14313500D02*
G75*
G03*
X9910347Y-14313500I-90000J0D01*
G01*
D11*
X10272728Y-14403976D02*
X10158442Y-14403976D01*
X10215585Y-14403976D02*
X10215585Y-14203976D01*
X10196537Y-14232548D01*
X10177489Y-14251595D01*
X10158442Y-14261119D01*
X10358442Y-14384928D02*
X10367966Y-14394452D01*
X10358442Y-14403976D01*
X10348918Y-14394452D01*
X10358442Y-14384928D01*
X10358442Y-14403976D01*
X10482251Y-14289690D02*
X10463204Y-14280167D01*
X10453680Y-14270643D01*
X10444156Y-14251595D01*
X10444156Y-14242071D01*
X10453680Y-14223024D01*
X10463204Y-14213500D01*
X10482251Y-14203976D01*
X10520347Y-14203976D01*
X10539394Y-14213500D01*
X10548918Y-14223024D01*
X10558442Y-14242071D01*
X10558442Y-14251595D01*
X10548918Y-14270643D01*
X10539394Y-14280167D01*
X10520347Y-14289690D01*
X10482251Y-14289690D01*
X10463204Y-14299214D01*
X10453680Y-14308738D01*
X10444156Y-14327786D01*
X10444156Y-14365881D01*
X10453680Y-14384928D01*
X10463204Y-14394452D01*
X10482251Y-14403976D01*
X10520347Y-14403976D01*
X10539394Y-14394452D01*
X10548918Y-14384928D01*
X10558442Y-14365881D01*
X10558442Y-14327786D01*
X10548918Y-14308738D01*
X10539394Y-14299214D01*
X10520347Y-14289690D01*
X10682251Y-14203976D02*
X10701299Y-14203976D01*
X10720347Y-14213500D01*
X10729870Y-14223024D01*
X10739394Y-14242071D01*
X10748918Y-14280167D01*
X10748918Y-14327786D01*
X10739394Y-14365881D01*
X10729870Y-14384928D01*
X10720347Y-14394452D01*
X10701299Y-14403976D01*
X10682251Y-14403976D01*
X10663204Y-14394452D01*
X10653680Y-14384928D01*
X10644156Y-14365881D01*
X10634632Y-14327786D01*
X10634632Y-14280167D01*
X10644156Y-14242071D01*
X10653680Y-14223024D01*
X10663204Y-14213500D01*
X10682251Y-14203976D01*
X10872728Y-14203976D02*
X10891775Y-14203976D01*
X10910823Y-14213500D01*
X10920347Y-14223024D01*
X10929870Y-14242071D01*
X10939394Y-14280167D01*
X10939394Y-14327786D01*
X10929870Y-14365881D01*
X10920347Y-14384928D01*
X10910823Y-14394452D01*
X10891775Y-14403976D01*
X10872728Y-14403976D01*
X10853680Y-14394452D01*
X10844156Y-14384928D01*
X10834632Y-14365881D01*
X10825109Y-14327786D01*
X10825109Y-14280167D01*
X10834632Y-14242071D01*
X10844156Y-14223024D01*
X10853680Y-14213500D01*
X10872728Y-14203976D01*
X11025109Y-14403976D02*
X11025109Y-14270643D01*
X11025109Y-14289690D02*
X11034632Y-14280167D01*
X11053680Y-14270643D01*
X11082251Y-14270643D01*
X11101299Y-14280167D01*
X11110823Y-14299214D01*
X11110823Y-14403976D01*
X11110823Y-14299214D02*
X11120347Y-14280167D01*
X11139394Y-14270643D01*
X11167966Y-14270643D01*
X11187013Y-14280167D01*
X11196537Y-14299214D01*
X11196537Y-14403976D01*
X11291775Y-14403976D02*
X11291775Y-14270643D01*
X11291775Y-14289690D02*
X11301299Y-14280167D01*
X11320347Y-14270643D01*
X11348918Y-14270643D01*
X11367966Y-14280167D01*
X11377489Y-14299214D01*
X11377489Y-14403976D01*
X11377489Y-14299214D02*
X11387013Y-14280167D01*
X11406061Y-14270643D01*
X11434632Y-14270643D01*
X11453680Y-14280167D01*
X11463204Y-14299214D01*
X11463204Y-14403976D01*
X11853680Y-14194452D02*
X11682251Y-14451595D01*
X12110823Y-14203976D02*
X12129870Y-14203976D01*
X12148918Y-14213500D01*
X12158442Y-14223024D01*
X12167966Y-14242071D01*
X12177489Y-14280167D01*
X12177489Y-14327786D01*
X12167966Y-14365881D01*
X12158442Y-14384928D01*
X12148918Y-14394452D01*
X12129870Y-14403976D01*
X12110823Y-14403976D01*
X12091775Y-14394452D01*
X12082251Y-14384928D01*
X12072727Y-14365881D01*
X12063204Y-14327786D01*
X12063204Y-14280167D01*
X12072727Y-14242071D01*
X12082251Y-14223024D01*
X12091775Y-14213500D01*
X12110823Y-14203976D01*
X12263204Y-14384928D02*
X12272727Y-14394452D01*
X12263204Y-14403976D01*
X12253680Y-14394452D01*
X12263204Y-14384928D01*
X12263204Y-14403976D01*
X12396537Y-14203976D02*
X12415585Y-14203976D01*
X12434632Y-14213500D01*
X12444156Y-14223024D01*
X12453680Y-14242071D01*
X12463204Y-14280167D01*
X12463204Y-14327786D01*
X12453680Y-14365881D01*
X12444156Y-14384928D01*
X12434632Y-14394452D01*
X12415585Y-14403976D01*
X12396537Y-14403976D01*
X12377489Y-14394452D01*
X12367966Y-14384928D01*
X12358442Y-14365881D01*
X12348918Y-14327786D01*
X12348918Y-14280167D01*
X12358442Y-14242071D01*
X12367966Y-14223024D01*
X12377489Y-14213500D01*
X12396537Y-14203976D01*
X12529870Y-14203976D02*
X12663204Y-14203976D01*
X12577489Y-14403976D01*
X12777489Y-14203976D02*
X12796537Y-14203976D01*
X12815585Y-14213500D01*
X12825108Y-14223024D01*
X12834632Y-14242071D01*
X12844156Y-14280167D01*
X12844156Y-14327786D01*
X12834632Y-14365881D01*
X12825108Y-14384928D01*
X12815585Y-14394452D01*
X12796537Y-14403976D01*
X12777489Y-14403976D01*
X12758442Y-14394452D01*
X12748918Y-14384928D01*
X12739394Y-14365881D01*
X12729870Y-14327786D01*
X12729870Y-14280167D01*
X12739394Y-14242071D01*
X12748918Y-14223024D01*
X12758442Y-14213500D01*
X12777489Y-14203976D01*
X12939394Y-14403976D02*
X12977489Y-14403976D01*
X12996537Y-14394452D01*
X13006061Y-14384928D01*
X13025108Y-14356357D01*
X13034632Y-14318262D01*
X13034632Y-14242071D01*
X13025108Y-14223024D01*
X13015585Y-14213500D01*
X12996537Y-14203976D01*
X12958442Y-14203976D01*
X12939394Y-14213500D01*
X12929870Y-14223024D01*
X12920346Y-14242071D01*
X12920346Y-14289690D01*
X12929870Y-14308738D01*
X12939394Y-14318262D01*
X12958442Y-14327786D01*
X12996537Y-14327786D01*
X13015585Y-14318262D01*
X13025108Y-14308738D01*
X13034632Y-14289690D01*
X13110823Y-14203976D02*
X13110823Y-14242071D01*
X13187013Y-14203976D02*
X13187013Y-14242071D01*
X13482251Y-14480167D02*
X13472727Y-14470643D01*
X13453680Y-14442071D01*
X13444156Y-14423024D01*
X13434632Y-14394452D01*
X13425108Y-14346833D01*
X13425108Y-14308738D01*
X13434632Y-14261119D01*
X13444156Y-14232548D01*
X13453680Y-14213500D01*
X13472727Y-14184928D01*
X13482251Y-14175405D01*
X13548918Y-14223024D02*
X13558442Y-14213500D01*
X13577489Y-14203976D01*
X13625108Y-14203976D01*
X13644156Y-14213500D01*
X13653680Y-14223024D01*
X13663204Y-14242071D01*
X13663204Y-14261119D01*
X13653680Y-14289690D01*
X13539394Y-14403976D01*
X13663204Y-14403976D01*
X13901299Y-14403976D02*
X13901299Y-14203976D01*
X13987013Y-14403976D02*
X13987013Y-14299214D01*
X13977489Y-14280167D01*
X13958442Y-14270643D01*
X13929870Y-14270643D01*
X13910823Y-14280167D01*
X13901299Y-14289690D01*
X14110823Y-14403976D02*
X14091775Y-14394452D01*
X14082251Y-14384928D01*
X14072727Y-14365881D01*
X14072727Y-14308738D01*
X14082251Y-14289690D01*
X14091775Y-14280167D01*
X14110823Y-14270643D01*
X14139394Y-14270643D01*
X14158442Y-14280167D01*
X14167966Y-14289690D01*
X14177489Y-14308738D01*
X14177489Y-14365881D01*
X14167966Y-14384928D01*
X14158442Y-14394452D01*
X14139394Y-14403976D01*
X14110823Y-14403976D01*
X14291775Y-14403976D02*
X14272727Y-14394452D01*
X14263204Y-14375405D01*
X14263204Y-14203976D01*
X14444156Y-14394452D02*
X14425108Y-14403976D01*
X14387013Y-14403976D01*
X14367966Y-14394452D01*
X14358442Y-14375405D01*
X14358442Y-14299214D01*
X14367966Y-14280167D01*
X14387013Y-14270643D01*
X14425108Y-14270643D01*
X14444156Y-14280167D01*
X14453680Y-14299214D01*
X14453680Y-14318262D01*
X14358442Y-14337309D01*
X14529870Y-14394452D02*
X14548918Y-14403976D01*
X14587013Y-14403976D01*
X14606061Y-14394452D01*
X14615585Y-14375405D01*
X14615585Y-14365881D01*
X14606061Y-14346833D01*
X14587013Y-14337309D01*
X14558442Y-14337309D01*
X14539394Y-14327786D01*
X14529870Y-14308738D01*
X14529870Y-14299214D01*
X14539394Y-14280167D01*
X14558442Y-14270643D01*
X14587013Y-14270643D01*
X14606061Y-14280167D01*
X14682251Y-14480167D02*
X14691775Y-14470643D01*
X14710823Y-14442071D01*
X14720346Y-14423024D01*
X14729870Y-14394452D01*
X14739394Y-14346833D01*
X14739394Y-14308738D01*
X14729870Y-14261119D01*
X14720346Y-14232548D01*
X14710823Y-14213500D01*
X14691775Y-14184928D01*
X14682251Y-14175405D01*
X15044156Y-14480167D02*
X15034632Y-14470643D01*
X15015585Y-14442071D01*
X15006061Y-14423024D01*
X14996537Y-14394452D01*
X14987013Y-14346833D01*
X14987013Y-14308738D01*
X14996537Y-14261119D01*
X15006061Y-14232548D01*
X15015585Y-14213500D01*
X15034632Y-14184928D01*
X15044156Y-14175405D01*
X15120346Y-14270643D02*
X15120346Y-14403976D01*
X15120346Y-14289690D02*
X15129870Y-14280167D01*
X15148918Y-14270643D01*
X15177489Y-14270643D01*
X15196537Y-14280167D01*
X15206061Y-14299214D01*
X15206061Y-14403976D01*
X15329870Y-14403976D02*
X15310823Y-14394452D01*
X15301299Y-14384928D01*
X15291775Y-14365881D01*
X15291775Y-14308738D01*
X15301299Y-14289690D01*
X15310823Y-14280167D01*
X15329870Y-14270643D01*
X15358442Y-14270643D01*
X15377489Y-14280167D01*
X15387013Y-14289690D01*
X15396537Y-14308738D01*
X15396537Y-14365881D01*
X15387013Y-14384928D01*
X15377489Y-14394452D01*
X15358442Y-14403976D01*
X15329870Y-14403976D01*
X15453680Y-14270643D02*
X15529870Y-14270643D01*
X15482251Y-14203976D02*
X15482251Y-14375405D01*
X15491775Y-14394452D01*
X15510823Y-14403976D01*
X15529870Y-14403976D01*
X15748918Y-14270643D02*
X15748918Y-14470643D01*
X15748918Y-14280167D02*
X15767966Y-14270643D01*
X15806061Y-14270643D01*
X15825108Y-14280167D01*
X15834632Y-14289690D01*
X15844156Y-14308738D01*
X15844156Y-14365881D01*
X15834632Y-14384928D01*
X15825108Y-14394452D01*
X15806061Y-14403976D01*
X15767966Y-14403976D01*
X15748918Y-14394452D01*
X15958442Y-14403976D02*
X15939394Y-14394452D01*
X15929870Y-14375405D01*
X15929870Y-14203976D01*
X16120346Y-14403976D02*
X16120346Y-14299214D01*
X16110823Y-14280167D01*
X16091775Y-14270643D01*
X16053680Y-14270643D01*
X16034632Y-14280167D01*
X16120346Y-14394452D02*
X16101299Y-14403976D01*
X16053680Y-14403976D01*
X16034632Y-14394452D01*
X16025108Y-14375405D01*
X16025108Y-14356357D01*
X16034632Y-14337309D01*
X16053680Y-14327786D01*
X16101299Y-14327786D01*
X16120346Y-14318262D01*
X16187013Y-14270643D02*
X16263204Y-14270643D01*
X16215585Y-14203976D02*
X16215585Y-14375405D01*
X16225108Y-14394452D01*
X16244156Y-14403976D01*
X16263204Y-14403976D01*
X16406061Y-14394452D02*
X16387013Y-14403976D01*
X16348918Y-14403976D01*
X16329870Y-14394452D01*
X16320346Y-14375405D01*
X16320346Y-14299214D01*
X16329870Y-14280167D01*
X16348918Y-14270643D01*
X16387013Y-14270643D01*
X16406061Y-14280167D01*
X16415585Y-14299214D01*
X16415585Y-14318262D01*
X16320346Y-14337309D01*
X16587013Y-14403976D02*
X16587013Y-14203976D01*
X16587013Y-14394452D02*
X16567966Y-14403976D01*
X16529870Y-14403976D01*
X16510823Y-14394452D01*
X16501299Y-14384928D01*
X16491775Y-14365881D01*
X16491775Y-14308738D01*
X16501299Y-14289690D01*
X16510823Y-14280167D01*
X16529870Y-14270643D01*
X16567966Y-14270643D01*
X16587013Y-14280167D01*
X16663204Y-14480167D02*
X16672727Y-14470643D01*
X16691775Y-14442071D01*
X16701299Y-14423024D01*
X16710823Y-14394452D01*
X16720346Y-14346833D01*
X16720346Y-14308738D01*
X16710823Y-14261119D01*
X16701299Y-14232548D01*
X16691775Y-14213500D01*
X16672727Y-14184928D01*
X16663204Y-14175405D01*
M02*
