G04 #@! TF.GenerationSoftware,KiCad,Pcbnew,(6.0.9)*
G04 #@! TF.CreationDate,2022-12-03T11:20:38+05:30*
G04 #@! TF.ProjectId,micromouseus,6d696372-6f6d-46f7-9573-6575732e6b69,rev?*
G04 #@! TF.SameCoordinates,Original*
G04 #@! TF.FileFunction,Copper,L1,Top*
G04 #@! TF.FilePolarity,Positive*
%FSLAX46Y46*%
G04 Gerber Fmt 4.6, Leading zero omitted, Abs format (unit mm)*
G04 Created by KiCad (PCBNEW (6.0.9)) date 2022-12-03 11:20:38*
%MOMM*%
%LPD*%
G01*
G04 APERTURE LIST*
G04 Aperture macros list*
%AMHorizOval*
0 Thick line with rounded ends*
0 $1 width*
0 $2 $3 position (X,Y) of the first rounded end (center of the circle)*
0 $4 $5 position (X,Y) of the second rounded end (center of the circle)*
0 Add line between two ends*
20,1,$1,$2,$3,$4,$5,0*
0 Add two circle primitives to create the rounded ends*
1,1,$1,$2,$3*
1,1,$1,$4,$5*%
%AMRotRect*
0 Rectangle, with rotation*
0 The origin of the aperture is its center*
0 $1 length*
0 $2 width*
0 $3 Rotation angle, in degrees counterclockwise*
0 Add horizontal line*
21,1,$1,$2,0,0,$3*%
G04 Aperture macros list end*
G04 #@! TA.AperFunction,ComponentPad*
%ADD10O,1.700000X1.700000*%
G04 #@! TD*
G04 #@! TA.AperFunction,SMDPad,CuDef*
%ADD11R,1.700000X3.500000*%
G04 #@! TD*
G04 #@! TA.AperFunction,ComponentPad*
%ADD12R,1.700000X1.700000*%
G04 #@! TD*
G04 #@! TA.AperFunction,SMDPad,CuDef*
%ADD13R,3.500000X1.700000*%
G04 #@! TD*
G04 #@! TA.AperFunction,ComponentPad*
%ADD14C,1.980000*%
G04 #@! TD*
G04 #@! TA.AperFunction,ComponentPad*
%ADD15RotRect,1.700000X1.700000X55.000000*%
G04 #@! TD*
G04 #@! TA.AperFunction,ComponentPad*
%ADD16HorizOval,1.700000X0.000000X0.000000X0.000000X0.000000X0*%
G04 #@! TD*
G04 #@! TA.AperFunction,ComponentPad*
%ADD17RotRect,1.700000X1.700000X310.000000*%
G04 #@! TD*
G04 #@! TA.AperFunction,ComponentPad*
%ADD18HorizOval,1.700000X0.000000X0.000000X0.000000X0.000000X0*%
G04 #@! TD*
G04 APERTURE END LIST*
D10*
X130810000Y-85090000D03*
D11*
X130810000Y-85990000D03*
D10*
X133350000Y-85090000D03*
D11*
X133350000Y-85990000D03*
X135890000Y-85990000D03*
D12*
X135890000Y-85090000D03*
D10*
X138430000Y-85090000D03*
D11*
X138430000Y-85990000D03*
D10*
X140970000Y-85090000D03*
D11*
X140970000Y-85990000D03*
D10*
X143510000Y-85090000D03*
D11*
X143510000Y-85990000D03*
X146050000Y-85990000D03*
D10*
X146050000Y-85090000D03*
D12*
X148590000Y-85090000D03*
D11*
X148590000Y-85990000D03*
X151130000Y-85990000D03*
D10*
X151130000Y-85090000D03*
X153670000Y-85090000D03*
D11*
X153670000Y-85990000D03*
X156210000Y-85990000D03*
D10*
X156210000Y-85090000D03*
X158750000Y-85090000D03*
D11*
X158750000Y-85990000D03*
D12*
X161290000Y-85090000D03*
D11*
X161290000Y-85990000D03*
X163830000Y-85990000D03*
D10*
X163830000Y-85090000D03*
X166370000Y-85090000D03*
D11*
X166370000Y-85990000D03*
X168910000Y-85990000D03*
D10*
X168910000Y-85090000D03*
D11*
X171450000Y-85990000D03*
D10*
X171450000Y-85090000D03*
D11*
X173990000Y-85990000D03*
D12*
X173990000Y-85090000D03*
D10*
X176530000Y-85090000D03*
D11*
X176530000Y-85990000D03*
X179070000Y-85990000D03*
D10*
X179070000Y-85090000D03*
D11*
X179070000Y-66410000D03*
D10*
X179070000Y-67310000D03*
D11*
X176530000Y-66410000D03*
D10*
X176530000Y-67310000D03*
D11*
X173990000Y-66410000D03*
D12*
X173990000Y-67310000D03*
D10*
X171450000Y-67310000D03*
D11*
X171450000Y-66410000D03*
X168910000Y-66410000D03*
D10*
X168910000Y-67310000D03*
D11*
X166370000Y-66410000D03*
D10*
X166370000Y-67310000D03*
X163830000Y-67310000D03*
D11*
X163830000Y-66410000D03*
D12*
X161290000Y-67310000D03*
D11*
X161290000Y-66410000D03*
D10*
X158750000Y-67310000D03*
D11*
X158750000Y-66410000D03*
X156210000Y-66410000D03*
D10*
X156210000Y-67310000D03*
X153670000Y-67310000D03*
D11*
X153670000Y-66410000D03*
D10*
X151130000Y-67310000D03*
D11*
X151130000Y-66410000D03*
X148590000Y-66410000D03*
D12*
X148590000Y-67310000D03*
D11*
X146050000Y-66410000D03*
D10*
X146050000Y-67310000D03*
D11*
X143510000Y-66410000D03*
D10*
X143510000Y-67310000D03*
X140970000Y-67310000D03*
D11*
X140970000Y-66410000D03*
X138430000Y-66410000D03*
D10*
X138430000Y-67310000D03*
D11*
X135890000Y-66410000D03*
D12*
X135890000Y-67310000D03*
D11*
X133350000Y-66410000D03*
D10*
X133350000Y-67310000D03*
X130810000Y-67310000D03*
D11*
X130810000Y-66410000D03*
D13*
X179740000Y-78740000D03*
D10*
X178840000Y-78740000D03*
D12*
X178840000Y-76200000D03*
D13*
X179740000Y-76200000D03*
D10*
X178840000Y-73660000D03*
D13*
X179740000Y-73660000D03*
D14*
X161290000Y-111760000D03*
X163830000Y-111760000D03*
X166370000Y-111760000D03*
X168910000Y-111760000D03*
X171450000Y-111760000D03*
X173990000Y-111760000D03*
X176530000Y-111760000D03*
X179070000Y-111760000D03*
X179070000Y-96520000D03*
X176530000Y-96520000D03*
X173990000Y-96520000D03*
X171450000Y-96520000D03*
X168910000Y-96520000D03*
X166370000Y-96520000D03*
X163830000Y-96520000D03*
X161290000Y-96520000D03*
D15*
X115218708Y-112021232D03*
D16*
X117299354Y-113478116D03*
X119380000Y-114935000D03*
X121460647Y-116391884D03*
X123541293Y-117848769D03*
D12*
X182880000Y-55880000D03*
D10*
X185420000Y-55880000D03*
D12*
X182880000Y-121920000D03*
D10*
X180340000Y-121920000D03*
D17*
X121362676Y-61507853D03*
D18*
X119416923Y-63140534D03*
X117471170Y-64773214D03*
X115525417Y-66405895D03*
X113579664Y-68038575D03*
D12*
X156845000Y-109220000D03*
X113030000Y-83190000D03*
D10*
X113030000Y-85730000D03*
X113030000Y-88270000D03*
X113030000Y-90810000D03*
X113030000Y-93350000D03*
D12*
X137790000Y-58420000D03*
D10*
X140330000Y-58420000D03*
M02*
