M48
; DRILL file {KiCad (6.0.9)} date Tue Dec  6 16:34:46 2022
; FORMAT={-:-/ absolute / metric / decimal}
; #@! TF.CreationDate,2022-12-06T16:34:46+05:30
; #@! TF.GenerationSoftware,Kicad,Pcbnew,(6.0.9)
; #@! TF.FileFunction,Plated,1,2,PTH
FMAT,2
METRIC
; #@! TA.AperFunction,Plated,PTH,ComponentDrill
T1C1.000
; #@! TA.AperFunction,Plated,PTH,ComponentDrill
T2C1.020
; #@! TA.AperFunction,Plated,PTH,ComponentDrill
T3C1.320
%
G90
G05
T1
X113.03Y-83.19
X113.03Y-85.73
X113.03Y-88.27
X113.03Y-90.81
X113.03Y-93.35
X123.411Y-122.776
X123.626Y-56.714
X125.207Y-124.572
X125.422Y-54.918
X127.004Y-126.369
X127.218Y-53.122
X128.8Y-128.165
X129.014Y-51.326
X130.596Y-129.961
X130.81Y-49.53
X137.79Y-58.42
X140.33Y-58.42
X154.94Y-107.95
X184.785Y-111.125
X185.42Y-67.31
X187.325Y-111.125
X187.96Y-67.31
T2
X130.81Y-67.945
X130.81Y-85.725
X133.35Y-67.945
X133.35Y-85.725
X135.89Y-67.945
X135.89Y-85.725
X138.43Y-67.945
X138.43Y-85.725
X140.97Y-67.945
X140.97Y-85.725
X143.51Y-67.945
X143.51Y-85.725
X146.05Y-67.945
X146.05Y-85.725
X148.59Y-67.945
X148.59Y-85.725
X151.13Y-67.945
X151.13Y-85.725
X153.67Y-67.945
X153.67Y-85.725
X156.21Y-67.945
X156.21Y-85.725
X158.75Y-67.945
X158.75Y-85.725
X161.29Y-67.945
X161.29Y-85.725
X163.83Y-67.945
X163.83Y-85.725
X166.37Y-67.945
X166.37Y-85.725
X168.91Y-67.945
X168.91Y-85.725
X171.45Y-67.945
X171.45Y-85.725
X173.99Y-67.945
X173.99Y-85.725
X176.53Y-67.945
X176.53Y-85.725
X178.84Y-74.295
X178.84Y-76.835
X178.84Y-79.375
X179.07Y-67.945
X179.07Y-85.725
T3
X161.29Y-92.71
X161.29Y-107.95
X163.83Y-92.71
X163.83Y-107.95
X166.37Y-92.71
X166.37Y-107.95
X168.91Y-92.71
X168.91Y-107.95
X171.45Y-92.71
X171.45Y-107.95
X173.99Y-92.71
X173.99Y-107.95
X176.53Y-92.71
X176.53Y-107.95
X179.07Y-92.71
X179.07Y-107.95
T0
M30
